<?xml version="1.0" encoding="UTF-8" standalone="no"?>
<!DOCTYPE svg PUBLIC "-//W3C//DTD SVG 1.1//EN" "http://www.w3.org/Graphics/SVG/1.1/DTD/svg11.dtd">
<svg width="100%" height="100%" viewBox="0 0 2176 364" version="1.1" xmlns="http://www.w3.org/2000/svg" xmlns:xlink="http://www.w3.org/1999/xlink" xml:space="preserve" style="fill-rule:evenodd;clip-rule:evenodd;stroke-linejoin:round;stroke-miterlimit:1.41421;">
    <g transform="matrix(1,0,0,1,-1487,-1505)">
        <g transform="matrix(1,0,0,1,1027.45,957.512)">
            <path d="M562.963,611.3C559.891,611.3 555.427,611.204 549.571,611.012C543.715,610.82 537.523,610.532 530.995,610.148C524.467,609.764 518.083,609.284 511.843,608.708C505.603,608.132 500.563,607.46 496.723,606.692C495.955,606.308 495.235,605.3 494.563,603.668C493.891,602.036 493.555,600.452 493.555,598.916C493.555,597.188 494.323,595.844 495.859,594.884C503.539,596.996 511.891,598.676 520.915,599.924C529.939,601.172 538.579,602.18 546.835,602.948C555.091,603.716 562.531,604.196 569.155,604.388C575.779,604.58 580.627,604.676 583.699,604.676C591.187,604.676 598.867,604.484 606.739,604.1C614.611,603.716 621.907,603.236 628.627,602.66C635.347,602.084 640.963,601.508 645.475,600.932C649.987,600.356 652.627,599.78 653.395,599.204C653.779,599.204 654.355,599.588 655.123,600.356C655.891,601.124 656.275,601.988 656.275,602.948C656.275,605.06 655.315,606.644 653.395,607.7C651.475,608.756 648.787,609.524 645.331,610.004C641.875,610.484 637.651,610.82 632.659,611.012C627.667,611.204 622.099,611.492 615.955,611.876C614.995,612.068 614.515,613.124 614.515,615.044C614.515,619.46 615.235,626.756 616.675,636.932C618.115,647.108 619.939,658.628 622.147,671.492C624.355,684.356 626.851,697.892 629.635,712.1C632.419,726.308 635.203,739.7 637.987,752.276C640.771,764.852 643.363,775.892 645.763,785.396C648.163,794.9 650.227,801.38 651.955,804.836C652.915,805.22 653.731,805.46 654.403,805.556C655.075,805.652 656.275,805.7 658.003,805.7C660.499,805.7 662.659,805.604 664.483,805.412C666.307,805.22 667.699,805.124 668.659,805.124C669.427,805.124 670.003,805.892 670.387,807.428C670.771,808.964 670.963,810.02 670.963,810.596C670.963,811.94 670.291,812.612 668.947,812.612C667.987,812.612 666.643,812.516 664.915,812.324C663.187,812.132 660.787,811.988 657.715,811.892C654.643,811.796 650.659,811.652 645.763,811.46C640.867,811.268 634.675,811.172 627.187,811.172C624.691,811.172 621.955,811.268 618.979,811.46C616.003,811.652 613.171,811.844 610.483,812.036C607.795,812.228 605.395,812.42 603.283,812.612C601.171,812.804 599.731,812.9 598.963,812.9C598.387,812.9 597.907,812.516 597.523,811.748C597.139,810.98 596.947,810.116 596.947,809.156C596.947,808.196 597.091,807.38 597.379,806.708C597.667,806.036 598.195,805.7 598.963,805.7C600.691,805.508 602.995,805.364 605.875,805.268C608.755,805.172 610.195,804.452 610.195,803.108C610.195,801.956 609.715,798.5 608.755,792.74C607.795,786.98 606.595,780.068 605.155,772.004C603.715,763.94 602.179,755.348 600.547,746.228C598.915,737.108 597.331,728.612 595.795,720.74C592.339,720.164 587.971,719.684 582.691,719.3C577.411,718.916 571.891,718.724 566.131,718.724C559.411,718.724 553.027,719.012 546.979,719.588C540.931,720.164 536.179,721.22 532.723,722.756C531.763,726.98 530.707,731.444 529.555,736.148C528.403,740.852 527.299,745.604 526.243,750.404C525.187,755.204 524.275,759.956 523.507,764.66C522.739,769.364 522.355,773.732 522.355,777.764C522.355,785.636 524.035,791.3 527.395,794.756C530.755,798.212 534.931,799.94 539.923,799.94C544.915,799.94 548.035,799.796 549.283,799.508C550.531,799.22 551.635,799.076 552.595,799.076C554.131,799.076 554.899,799.46 554.899,800.228C554.899,800.612 554.467,801.236 553.603,802.1C552.739,802.964 551.635,803.876 550.291,804.836C548.563,806.18 546.307,807.86 543.523,809.876C540.739,811.892 537.139,812.9 532.723,812.9C532.147,812.9 530.659,812.804 528.259,812.612C525.859,812.42 522.931,812.18 519.475,811.892C516.019,811.604 512.371,811.364 508.531,811.172C504.691,810.98 501.043,810.884 497.587,810.884C492.787,810.884 488.899,810.98 485.923,811.172C482.947,811.364 480.595,811.556 478.867,811.748C477.139,811.94 475.939,812.132 475.267,812.324C474.595,812.516 474.067,812.612 473.683,812.612C473.299,812.612 472.963,812.276 472.675,811.604C472.387,810.932 472.243,810.212 472.243,809.444C472.243,808.292 472.723,807.62 473.683,807.428C475.603,806.66 478.387,805.22 482.035,803.108C485.875,800.804 489.283,796.916 492.259,791.444C495.235,785.972 498.643,778.532 502.483,769.124C505.171,762.788 508.147,754.148 511.411,743.204C514.675,732.26 517.939,720.26 521.203,707.204C524.467,694.148 527.539,680.468 530.419,666.164C533.299,651.86 535.699,638.084 537.619,624.836L562.963,611.3ZM592.339,700.868C591.379,696.068 590.275,690.116 589.027,683.012C587.779,675.908 586.483,668.66 585.139,661.268C583.795,653.876 582.499,646.916 581.251,640.388C580.003,633.86 578.995,628.868 578.227,625.412C577.075,620.228 576.067,616.964 575.203,615.62C574.339,614.276 573.427,613.604 572.467,613.604C570.547,613.604 568.531,615.188 566.419,618.356C564.307,621.524 562.051,625.748 559.651,631.028C557.251,636.308 554.899,642.356 552.595,649.172C550.291,655.988 548.035,662.996 545.827,670.196C543.619,677.396 541.603,684.548 539.779,691.652C537.955,698.756 536.467,705.188 535.315,710.948C538.387,710.18 542.275,709.364 546.979,708.5C551.683,707.636 556.675,706.724 561.955,705.764C567.235,704.804 572.515,703.892 577.795,703.028C583.075,702.164 587.923,701.444 592.339,700.868Z" style="fill:white;fill-rule:nonzero;stroke:rgb(102,102,102);stroke-width:1px;"/>
            <path d="M722.515,733.124C722.323,734.852 722.131,736.388 721.939,737.732C721.747,739.076 721.603,740.612 721.507,742.34C721.411,744.068 721.315,746.228 721.219,748.82C721.123,751.412 721.075,754.82 721.075,759.044C721.075,765.956 721.315,771.62 721.795,776.036C722.275,780.452 722.995,783.956 723.955,786.548C724.915,789.14 726.115,790.916 727.555,791.876C728.995,792.836 730.771,793.316 732.883,793.316C734.227,793.316 735.667,793.124 737.203,792.74C737.587,792.74 737.923,793.268 738.211,794.324C738.499,795.38 738.451,796.1 738.067,796.484C736.915,797.444 734.659,798.836 731.299,800.66C727.939,802.484 724.147,804.26 719.923,805.988C715.699,807.716 711.331,809.252 706.819,810.596C702.307,811.94 698.515,812.612 695.443,812.612C692.755,812.612 690.643,812.276 689.107,811.604C687.571,810.932 686.803,810.116 686.803,809.156C686.803,808.196 686.899,807.62 687.091,807.428C687.283,807.236 687.571,806.756 687.955,805.988C688.339,805.028 688.627,803.828 688.819,802.388C689.011,800.948 689.299,799.268 689.683,797.348C690.067,794.66 690.451,791.252 690.835,787.124C691.219,782.996 691.603,778.484 691.987,773.588C692.371,768.692 692.707,763.604 692.995,758.324C693.283,753.044 693.427,747.908 693.427,742.916C693.427,740.804 693.379,738.164 693.283,734.996C693.187,731.828 693.043,727.748 692.851,722.756C692.659,717.188 692.035,712.436 690.979,708.5C689.923,704.564 688.579,701.396 686.947,698.996C685.315,696.596 683.491,694.82 681.475,693.668C679.459,692.516 677.491,691.94 675.571,691.94C674.611,691.94 673.651,691.94 672.691,691.94C671.731,691.94 670.771,692.036 669.811,692.228C669.043,692.228 668.659,691.364 668.659,689.636C668.659,689.252 668.803,688.916 669.091,688.628C669.379,688.34 670.291,687.716 671.827,686.756C674.323,685.028 677.683,682.916 681.907,680.42C686.131,677.924 690.451,675.62 694.867,673.508C699.283,671.396 703.459,669.572 707.395,668.036C711.331,666.5 714.355,665.732 716.467,665.732C722.035,665.732 724.819,668.9 724.819,675.236C724.819,676.196 724.723,677.924 724.531,680.42C724.339,682.916 724.195,685.46 724.099,688.052C724.003,690.644 723.859,693.092 723.667,695.396C723.475,697.7 723.379,699.236 723.379,700.004C727.411,696.164 731.731,692.228 736.339,688.196C740.947,684.164 745.939,680.468 751.315,677.108C756.691,673.748 762.355,671.012 768.307,668.9C774.259,666.788 780.403,665.732 786.739,665.732C798.259,665.732 807.715,669.044 815.107,675.668C822.499,682.292 826.195,692.804 826.195,707.204C826.195,711.044 825.955,715.556 825.475,720.74C824.995,725.924 824.467,731.3 823.891,736.868C823.315,742.436 822.787,747.908 822.307,753.284C821.827,758.66 821.587,763.46 821.587,767.684C821.587,783.044 826.579,790.724 836.563,790.724C838.483,790.724 840.643,790.388 843.043,789.716C845.443,789.044 847.747,788.276 849.955,787.412C852.163,786.548 854.131,785.684 855.859,784.82C857.587,783.956 858.739,783.236 859.315,782.66C859.507,782.468 859.747,782.612 860.035,783.092C860.323,783.572 860.563,784.196 860.755,784.964C860.947,785.732 860.995,786.404 860.899,786.98C860.803,787.556 860.659,787.94 860.467,788.132C858.931,789.092 855.619,790.916 850.531,793.604C845.443,796.292 839.779,799.028 833.539,801.812C827.299,804.596 821.107,807.092 814.963,809.3C808.819,811.508 803.923,812.612 800.275,812.612C795.859,812.612 792.835,811.556 791.203,809.444C789.571,807.332 788.755,805.124 788.755,802.82C788.755,801.284 788.995,799.364 789.475,797.06C789.955,794.756 790.579,791.012 791.347,785.828C792.115,780.26 792.835,773.732 793.507,766.244C794.179,758.756 794.515,750.692 794.515,742.052C794.515,725.156 791.395,712.34 785.155,703.604C778.915,694.868 771.091,690.5 761.683,690.5C755.731,690.5 750.451,691.652 745.843,693.956C741.235,696.26 737.299,699.38 734.035,703.316C730.771,707.252 728.179,711.764 726.259,716.852C724.339,721.94 723.091,727.364 722.515,733.124Z" style="fill:white;fill-rule:nonzero;stroke:rgb(102,102,102);stroke-width:1px;"/>
            <path d="M1046.52,683.012C1042.67,685.892 1036.29,688.436 1027.36,690.644C1018.44,692.852 1008.12,693.956 996.403,693.956C994.099,693.956 991.555,694.004 988.771,694.1C985.987,694.196 983.827,694.244 982.291,694.244C983.059,701.54 982.147,709.028 979.555,716.708C976.963,724.388 973.987,731.636 970.627,738.452C967.267,745.268 964.147,751.268 961.267,756.452C958.387,761.636 956.947,765.38 956.947,767.684C956.947,770.756 958.291,773.732 960.979,776.612C963.667,779.492 967.027,782.372 971.059,785.252C975.091,788.132 979.411,791.06 984.019,794.036C988.627,797.012 992.947,800.18 996.979,803.54C1001.01,806.9 1004.37,810.596 1007.06,814.628C1009.75,818.66 1011.09,823.076 1011.09,827.876C1011.09,834.788 1008.45,842.372 1003.17,850.628C997.891,858.884 990.739,866.612 981.715,873.812C972.691,881.012 962.131,887.012 950.035,891.812C937.939,896.612 925.075,899.012 911.443,899.012C905.107,899.012 898.243,898.34 890.851,896.996C883.459,895.652 876.643,893.636 870.403,890.948C864.163,888.26 858.979,884.948 854.851,881.012C850.723,877.076 848.659,872.42 848.659,867.044C848.659,863.972 851.011,859.94 855.715,854.948C860.419,849.956 865.843,844.868 871.987,839.684C878.131,834.5 884.179,829.508 890.131,824.708C896.083,819.908 900.307,816.068 902.803,813.188C903.379,813.188 904.099,813.572 904.963,814.34C905.827,815.108 906.259,815.972 906.259,816.932C906.259,817.124 906.211,817.268 906.115,817.364C906.019,817.46 905.971,817.604 905.971,817.796C904.051,819.332 901.699,821.252 898.915,823.556C896.131,825.86 893.395,828.356 890.707,831.044C888.019,833.732 885.715,836.66 883.795,839.828C881.875,842.996 880.915,846.116 880.915,849.188C880.915,853.22 882.499,857.204 885.667,861.14C888.835,865.076 892.963,868.58 898.051,871.652C903.139,874.724 908.947,877.22 915.475,879.14C922.003,881.06 928.627,882.02 935.347,882.02C949.171,882.02 959.683,878.996 966.883,872.948C974.083,866.9 977.683,858.404 977.683,847.46C977.683,842.852 976.387,838.436 973.795,834.212C971.203,829.988 968.035,826.052 964.291,822.404C960.547,818.756 956.419,815.348 951.907,812.18C947.395,809.012 943.267,806.084 939.523,803.396C935.779,800.708 932.611,798.212 930.019,795.908C927.427,793.604 926.131,791.492 926.131,789.572C926.131,787.844 926.659,785.876 927.715,783.668C928.771,781.46 929.971,779.252 931.315,777.044C932.659,774.836 933.859,772.82 934.915,770.996C935.971,769.172 936.499,767.78 936.499,766.82C936.499,767.012 936.307,766.724 935.923,765.956C934.579,767.3 932.659,768.644 930.163,769.988C927.667,771.332 924.739,772.58 921.379,773.732C918.019,774.884 914.467,775.844 910.723,776.612C906.979,777.38 903.187,777.764 899.347,777.764C892.051,777.764 885.619,776.564 880.051,774.164C874.483,771.764 869.827,768.548 866.083,764.516C862.339,760.484 859.507,755.828 857.587,750.548C855.667,745.268 854.707,739.652 854.707,733.7C854.707,724.868 856.003,717.284 858.595,710.948C861.187,704.612 864.451,699.236 868.387,694.82C872.323,690.404 876.499,686.804 880.915,684.02C885.331,681.236 889.363,678.884 893.011,676.964C895.315,675.812 898.051,674.708 901.219,673.652C904.387,672.596 907.795,671.636 911.443,670.772C915.091,669.908 918.835,669.188 922.675,668.612C926.515,668.036 930.163,667.748 933.619,667.748C945.715,667.748 955.507,669.092 962.995,671.78C970.483,674.468 975.379,676.868 977.683,678.98C979.987,679.364 984.115,679.652 990.067,679.844C996.019,680.036 1002.36,680.132 1009.08,680.132L1043.92,680.132C1044.88,680.132 1045.84,680.036 1046.8,679.844C1047.76,680.036 1048.15,680.516 1047.95,681.284C1047.76,682.052 1047.28,682.628 1046.52,683.012ZM927.859,760.772C930.547,760.772 933.235,760.196 935.923,759.044C938.611,757.892 941.059,755.924 943.267,753.14C945.475,750.356 947.299,746.612 948.739,741.908C950.179,737.204 950.899,731.3 950.899,724.196C950.899,717.668 950.179,711.62 948.739,706.052C947.299,700.484 945.139,695.684 942.259,691.652C939.379,687.62 935.827,684.5 931.603,682.292C927.379,680.084 922.387,678.98 916.627,678.98C908.371,678.98 901.363,682.1 895.603,688.34C889.843,694.58 886.963,703.46 886.963,714.98C886.963,721.316 888.115,727.268 890.419,732.836C892.723,738.404 895.747,743.252 899.491,747.38C903.235,751.508 907.603,754.772 912.595,757.172C917.587,759.572 922.675,760.772 927.859,760.772Z" style="fill:white;fill-rule:nonzero;stroke:rgb(102,102,102);stroke-width:1px;"/>
            <path d="M1151.35,775.46C1149.24,777.764 1145.97,780.932 1141.56,784.964C1137.14,788.996 1131.81,793.028 1125.57,797.06C1119.33,801.092 1112.37,804.548 1104.69,807.428C1097.01,810.308 1088.85,811.748 1080.21,811.748C1072.34,811.748 1064.66,810.548 1057.17,808.148C1049.68,805.748 1042.96,802.1 1037.01,797.204C1031.06,792.308 1026.31,786.068 1022.75,778.484C1019.2,770.9 1017.43,761.828 1017.43,751.268C1017.43,742.628 1018,735.188 1019.15,728.948C1020.31,722.708 1021.84,717.236 1023.76,712.532C1025.68,707.828 1027.84,703.796 1030.24,700.436C1032.64,697.076 1035.09,694.052 1037.59,691.364C1040.66,687.908 1044.4,684.644 1048.82,681.572C1053.24,678.5 1057.99,675.716 1063.08,673.22C1068.16,670.724 1073.54,668.756 1079.2,667.316C1084.87,665.876 1090.58,665.156 1096.34,665.156C1106.71,665.156 1114.82,666.884 1120.67,670.34C1126.53,673.796 1129.46,678.596 1129.46,684.74C1129.46,688.58 1128.31,692.132 1126,695.396C1127.92,694.82 1130.37,693.86 1133.35,692.516C1136.32,691.172 1139.35,689.78 1142.42,688.34C1145.49,686.9 1148.23,685.604 1150.63,684.452C1153.03,683.3 1154.61,682.436 1155.38,681.86C1155.76,681.476 1156.19,681.332 1156.67,681.428C1157.15,681.524 1157.39,681.86 1157.39,682.436C1157.39,684.932 1156.91,686.996 1155.95,688.628C1155,690.26 1153.84,691.556 1152.5,692.516C1149.43,694.436 1145.01,696.836 1139.25,699.716C1133.49,702.596 1127.11,705.62 1120.1,708.788C1113.09,711.956 1105.84,715.124 1098.36,718.292C1090.87,721.46 1083.81,724.484 1077.19,727.364C1070.56,730.244 1064.8,732.788 1059.91,734.996C1055.01,737.204 1051.7,738.788 1049.97,739.748C1049.97,746.276 1051.27,752.372 1053.86,758.036C1056.45,763.7 1060.05,768.644 1064.66,772.868C1069.27,777.092 1074.79,780.404 1081.22,782.804C1087.65,785.204 1094.71,786.404 1102.39,786.404C1109.3,786.404 1115.54,785.684 1121.11,784.244C1126.67,782.804 1131.38,781.172 1135.22,779.348C1139.06,777.524 1142.08,775.892 1144.29,774.452C1146.5,773.012 1147.7,772.292 1147.89,772.292C1148.66,772.292 1149.43,772.628 1150.19,773.3C1150.96,773.972 1151.35,774.692 1151.35,775.46ZM1049.97,731.396C1053.24,730.244 1056.93,728.852 1061.06,727.22C1065.19,725.588 1069.22,723.812 1073.15,721.892C1077.09,719.972 1080.69,718.148 1083.95,716.42C1087.22,714.692 1089.71,713.156 1091.44,711.812C1094.9,709.316 1096.63,705.092 1096.63,699.14C1096.63,696.836 1096.19,694.436 1095.33,691.94C1094.47,689.444 1093.17,687.188 1091.44,685.172C1089.71,683.156 1087.6,681.524 1085.11,680.276C1082.61,679.028 1079.83,678.404 1076.76,678.404C1074.07,678.404 1071.19,679.316 1068.12,681.14C1065.04,682.964 1062.16,685.94 1059.47,690.068C1056.79,694.196 1054.53,699.668 1052.71,706.484C1050.88,713.3 1049.97,721.604 1049.97,731.396Z" style="fill:white;fill-rule:nonzero;stroke:rgb(102,102,102);stroke-width:1px;"/>
            <path d="M1248.69,779.78C1249.84,780.548 1250.42,781.508 1250.42,782.66C1250.42,784.196 1248.21,786.212 1243.8,788.708C1239.19,791.396 1233.09,794.564 1225.51,798.212C1217.92,801.86 1210.39,805.028 1202.9,807.716C1199.25,809.06 1195.99,810.212 1193.11,811.172C1190.23,812.132 1187.63,812.612 1185.33,812.612C1182.64,812.612 1179.33,811.988 1175.39,810.74C1171.46,809.492 1168.05,808.004 1165.17,806.276C1162.87,804.74 1161.04,803.54 1159.7,802.676C1158.36,801.812 1157.68,800.9 1157.68,799.94C1157.68,799.172 1157.92,798.452 1158.4,797.78C1158.88,797.108 1159.32,796.292 1159.7,795.332C1159.89,794.756 1160.08,793.988 1160.28,793.028C1160.47,792.068 1160.56,791.108 1160.56,790.148C1161.14,785.348 1161.76,778.388 1162.43,769.268C1163.11,760.148 1163.63,750.068 1164.02,739.028C1164.4,727.988 1164.74,716.564 1165.03,704.756C1165.32,692.948 1165.46,681.956 1165.46,671.78C1165.46,659.3 1165.41,649.22 1165.32,641.54C1165.22,633.86 1164.98,627.716 1164.6,623.108C1164.02,616.772 1163.25,612.596 1162.29,610.58C1161.33,608.564 1160.28,607.076 1159.12,606.116C1157.78,604.964 1156.48,604.244 1155.24,603.956C1153.99,603.668 1152.84,603.476 1151.78,603.38C1150.72,603.284 1149.86,603.236 1149.19,603.236C1148.52,603.236 1148.18,603.044 1148.18,602.66C1148.18,596.324 1150.87,593.156 1156.24,593.156C1160.28,593.156 1165.03,593.204 1170.5,593.3C1175.97,593.396 1180.53,593.444 1184.18,593.444C1186.48,593.444 1188.93,593.3 1191.52,593.012C1194.12,592.724 1196.66,592.436 1199.15,592.148C1201.65,591.86 1203.95,591.524 1206.07,591.14C1208.18,590.756 1209.71,590.372 1210.67,589.988C1211.44,589.796 1212.07,590.084 1212.55,590.852C1213.03,591.62 1213.32,592.58 1213.41,593.732C1213.51,594.884 1213.32,595.94 1212.84,596.9C1212.36,597.86 1211.73,598.436 1210.96,598.628C1209.81,598.82 1208.8,598.916 1207.94,598.916C1207.08,598.916 1205.59,599.3 1203.48,600.068C1202.52,600.452 1201.65,601.652 1200.88,603.668C1200.12,605.684 1199.44,608.852 1198.87,613.172C1198.29,617.492 1197.71,623.156 1197.14,630.164C1196.56,637.172 1195.99,645.956 1195.41,656.516C1194.84,664.964 1194.4,673.556 1194.12,682.292C1193.83,691.028 1193.54,699.524 1193.25,707.78C1192.96,716.036 1192.77,723.716 1192.67,730.82C1192.58,737.924 1192.53,743.972 1192.53,748.964C1192.53,754.532 1192.58,760.148 1192.67,765.812C1192.77,771.476 1193.3,775.94 1194.26,779.204C1195.22,782.276 1197.71,785.156 1201.75,787.844C1205.78,790.532 1210,791.876 1214.42,791.876C1217.88,791.876 1221.43,791.396 1225.08,790.436C1228.72,789.476 1232.08,788.324 1235.15,786.98C1238.23,785.636 1240.96,784.292 1243.36,782.948C1245.76,781.604 1247.54,780.548 1248.69,779.78Z" style="fill:white;fill-rule:nonzero;stroke:rgb(102,102,102);stroke-width:1px;"/>
            <path d="M1227.38,690.212C1225.84,689.828 1225.12,689.06 1225.22,687.908C1225.32,686.756 1226.04,686.084 1227.38,685.892C1227.95,685.7 1229.78,685.028 1232.85,683.876C1235.92,682.724 1239.62,681.38 1243.94,679.844C1248.26,678.308 1252.77,676.676 1257.48,674.948C1262.18,673.22 1266.36,671.78 1270,670.628C1272.31,669.86 1273.89,669.332 1274.76,669.044C1275.62,668.756 1276.34,668.612 1276.91,668.612C1277.49,668.612 1278.16,668.852 1278.93,669.332C1279.7,669.812 1279.89,670.532 1279.51,671.492C1278.93,673.028 1278.31,676.676 1277.63,682.436C1276.96,688.196 1276.34,694.58 1275.76,701.588C1275.19,708.596 1274.66,715.556 1274.18,722.468C1273.7,729.38 1273.46,734.852 1273.46,738.884C1273.46,754.244 1276.72,766.1 1283.25,774.452C1289.78,782.804 1299.95,786.98 1313.78,786.98C1320.88,786.98 1326.79,785.54 1331.49,782.66C1336.19,779.78 1339.8,776.42 1342.29,772.58C1344.02,770.084 1345.17,764.612 1345.75,756.164C1345.75,754.628 1345.8,752.612 1345.89,750.116C1345.99,747.62 1346.08,744.98 1346.18,742.196C1346.28,739.412 1346.37,736.724 1346.47,734.132C1346.56,731.54 1346.61,729.38 1346.61,727.652C1346.8,718.82 1346.56,710.612 1345.89,703.028C1345.22,695.444 1344.21,689.828 1342.87,686.18C1342.29,683.876 1341.14,682.724 1339.41,682.724C1338.26,682.724 1337.15,682.772 1336.1,682.868C1335.04,682.964 1334.42,682.148 1334.23,680.42C1334.23,679.844 1334.8,679.22 1335.95,678.548C1337.11,677.876 1339.32,676.868 1342.58,675.524C1345.65,674.372 1349.06,673.22 1352.8,672.068C1356.55,670.916 1360.24,669.956 1363.89,669.188C1367.54,668.42 1370.8,667.892 1373.68,667.604C1376.56,667.316 1378.67,667.46 1380.02,668.036C1380.02,668.228 1380.16,668.468 1380.45,668.756C1380.74,669.044 1380.98,669.668 1381.17,670.628C1381.56,671.78 1381.32,675.38 1380.45,681.428C1379.59,687.476 1378.67,697.316 1377.71,710.948C1376.95,720.356 1376.28,729.476 1375.7,738.308C1375.12,747.14 1374.84,753.86 1374.84,758.468C1374.84,767.492 1376.52,774.644 1379.88,779.924C1383.24,785.204 1387.41,787.844 1392.4,787.844C1395.67,787.844 1398.79,787.172 1401.76,785.828C1404.74,784.484 1406.9,783.332 1408.24,782.372C1409.78,782.372 1410.6,783.044 1410.69,784.388C1410.79,785.732 1410.45,786.596 1409.68,786.98C1406.8,788.9 1402.82,791.3 1397.73,794.18C1392.64,797.06 1387.36,799.796 1381.89,802.388C1376.42,804.98 1371.19,807.188 1366.19,809.012C1361.2,810.836 1357.17,811.748 1354.1,811.748C1352.56,811.748 1351.17,810.74 1349.92,808.724C1348.67,806.708 1347.67,804.26 1346.9,801.38C1346.13,798.5 1345.56,795.524 1345.17,792.452C1344.79,789.38 1344.6,786.692 1344.6,784.388C1340.56,787.268 1335.95,790.292 1330.77,793.46C1325.59,796.628 1320.21,799.604 1314.64,802.388C1309.08,805.172 1303.56,807.428 1298.08,809.156C1292.61,810.884 1287.57,811.748 1282.96,811.748C1271.25,811.748 1261.65,808.628 1254.16,802.388C1246.67,796.148 1242.93,788.036 1242.93,778.052C1242.93,775.94 1243.12,772.772 1243.51,768.548C1243.89,764.324 1244.37,759.524 1244.95,754.148C1245.52,748.772 1246,743.012 1246.39,736.868C1246.77,730.724 1246.96,724.772 1246.96,719.012C1246.96,710.18 1245.57,703.412 1242.79,698.708C1240,694.004 1236.4,691.364 1231.99,690.788L1227.38,690.212Z" style="fill:white;fill-rule:nonzero;stroke:rgb(102,102,102);stroke-width:1px;"/>
            <path d="M1409.97,801.956C1408.43,802.916 1407,804.5 1405.65,806.708C1404.31,808.916 1403.44,810.596 1403.06,811.748C1402.87,812.132 1402.34,812.468 1401.48,812.756C1400.61,813.044 1399.99,813.188 1399.6,813.188C1397.88,813.188 1397.01,812.324 1397.01,810.596C1397.01,810.02 1397.78,808.484 1399.32,805.988C1400.47,804.068 1402.29,801.044 1404.79,796.916C1407.28,792.788 1409.83,788.564 1412.42,784.244C1415.01,779.924 1417.41,775.988 1419.62,772.436C1421.83,768.884 1423.41,766.532 1424.37,765.38C1425.33,764.42 1426.48,764.276 1427.83,764.948C1429.17,765.62 1429.56,766.436 1428.98,767.396C1428.6,767.78 1428.31,768.26 1428.12,768.836C1427.92,769.412 1427.83,770.372 1427.83,771.716C1427.83,773.444 1429.32,775.604 1432.29,778.196C1435.27,780.788 1439.06,783.284 1443.67,785.684C1448.28,788.084 1453.36,790.148 1458.93,791.876C1464.5,793.604 1469.97,794.468 1475.35,794.468C1481.68,794.468 1486.72,792.644 1490.47,788.996C1494.21,785.348 1496.08,780.548 1496.08,774.596C1496.08,767.876 1493.97,762.884 1489.75,759.62C1485.52,756.356 1480.29,753.86 1474.05,752.132C1467.81,750.404 1461,749.012 1453.6,747.956C1446.21,746.9 1439.39,745.316 1433.15,743.204C1426.91,741.092 1421.68,738.02 1417.46,733.988C1413.24,729.956 1411.12,724.1 1411.12,716.42C1411.12,710.468 1413.19,704.42 1417.32,698.276C1421.44,692.132 1426.91,686.66 1433.73,681.86C1440.55,677.06 1448.37,673.124 1457.2,670.052C1466.04,666.98 1475.25,665.444 1484.85,665.444C1487.73,665.444 1491.09,665.732 1494.93,666.308C1498.77,666.884 1502.56,667.604 1506.31,668.468C1510.05,669.332 1513.51,670.196 1516.67,671.06C1519.84,671.924 1522.19,672.644 1523.73,673.22C1524.12,673.22 1524.02,673.988 1523.44,675.524C1522.87,677.252 1521.43,679.892 1519.12,683.444C1516.82,686.996 1514.28,690.5 1511.49,693.956C1508.71,697.412 1506.12,700.484 1503.71,703.172C1501.32,705.86 1499.63,707.204 1498.67,707.204C1498.48,707.204 1497.91,707.204 1496.95,707.204C1495.99,707.204 1495.32,707.012 1494.93,706.628C1495.12,705.668 1495.22,704.42 1495.22,702.884C1495.22,696.164 1492.19,690.884 1486.15,687.044C1480.1,683.204 1471.32,681.284 1459.8,681.284C1454.23,681.284 1449.67,682.916 1446.12,686.18C1442.56,689.444 1440.79,693.38 1440.79,697.988C1440.79,705.476 1442.9,711.044 1447.12,714.692C1451.35,718.34 1456.63,721.076 1462.96,722.9C1469.3,724.724 1476.12,726.116 1483.41,727.076C1490.71,728.036 1497.52,729.524 1503.86,731.54C1510.19,733.556 1515.48,736.58 1519.7,740.612C1523.92,744.644 1526.04,750.692 1526.04,758.756C1526.04,762.404 1525.27,765.956 1523.73,769.412C1522.19,772.868 1520.18,776.132 1517.68,779.204C1515.19,782.276 1512.4,785.108 1509.33,787.7C1506.26,790.292 1503.19,792.548 1500.12,794.468C1497.24,796.388 1493.97,798.356 1490.32,800.372C1486.67,802.388 1482.74,804.26 1478.52,805.988C1474.29,807.716 1469.97,809.108 1465.56,810.164C1461.14,811.22 1456.72,811.748 1452.31,811.748C1450.19,811.748 1446.84,811.316 1442.23,810.452C1437.62,809.588 1432.96,808.58 1428.26,807.428C1423.56,806.276 1419.38,805.172 1415.73,804.116C1412.08,803.06 1410.16,802.34 1409.97,801.956Z" style="fill:white;fill-rule:nonzero;stroke:rgb(102,102,102);stroke-width:1px;"/>
            <path d="M1649.3,803.108C1644.88,805.604 1639.32,808.196 1632.6,810.884C1625.88,813.572 1618.87,814.916 1611.57,814.916C1607.15,814.916 1603.99,814.532 1602.07,813.764C1600.15,812.996 1599.19,811.46 1599.19,809.156C1599.19,808.004 1599.48,806.612 1600.05,804.98C1600.63,803.348 1601.39,802.532 1602.36,802.532C1602.74,802.532 1603.22,802.82 1603.8,803.396C1604.95,804.932 1606.67,805.796 1608.98,805.988C1611.28,806.18 1613.78,806.276 1616.47,806.276C1620.5,806.084 1624.15,804.692 1627.41,802.1C1630.67,799.508 1633.08,796.004 1634.61,791.588C1635.38,788.9 1636.15,784.676 1636.91,778.916C1637.68,773.156 1638.31,766.244 1638.79,758.18C1639.27,750.116 1639.65,741.14 1639.94,731.252C1640.23,721.364 1640.37,710.948 1640.37,700.004C1640.37,675.044 1639.7,655.604 1638.36,641.684C1637.01,627.764 1635.28,619.748 1633.17,617.636C1631.06,615.908 1628.42,614.756 1625.25,614.18C1622.08,613.604 1618.87,613.316 1615.6,613.316C1614.07,613.316 1612.53,613.364 1611,613.46C1609.46,613.556 1608.21,613.604 1607.25,613.604C1606.1,613.604 1605.19,613.172 1604.52,612.308C1603.84,611.444 1603.51,610.532 1603.51,609.572C1603.51,606.116 1604.76,604.388 1607.25,604.388C1608.6,604.388 1611,604.532 1614.45,604.82C1617.91,605.108 1621.89,605.396 1626.4,605.684C1630.91,605.972 1635.67,606.212 1640.66,606.404C1645.65,606.596 1650.16,606.692 1654.19,606.692C1659.19,606.692 1663.84,605.924 1668.16,604.388C1672.48,602.852 1676.95,601.124 1681.56,599.204C1686.16,597.284 1691.2,595.556 1696.67,594.02C1702.15,592.484 1708.53,591.716 1715.83,591.716C1734.64,591.716 1750.82,594.404 1764.36,599.78C1777.89,605.156 1788.98,612.404 1797.62,621.524C1806.26,630.644 1812.64,641.108 1816.77,652.916C1820.9,664.724 1822.96,676.964 1822.96,689.636C1822.96,704.612 1820.32,719.588 1815.04,734.564C1809.76,749.54 1802.23,763.028 1792.43,775.028C1782.64,787.028 1770.79,796.724 1756.87,804.116C1742.95,811.508 1727.44,815.204 1710.36,815.204C1706.71,815.204 1702.15,814.868 1696.67,814.196C1691.2,813.524 1685.59,812.612 1679.83,811.46C1674.07,810.308 1668.45,809.012 1662.98,807.572C1657.51,806.132 1652.95,804.644 1649.3,803.108ZM1716.98,803.396C1728.31,803.396 1738.19,800.66 1746.64,795.188C1755.09,789.716 1762.15,782.516 1767.81,773.588C1773.48,764.66 1777.75,754.436 1780.63,742.916C1783.51,731.396 1784.95,719.588 1784.95,707.492C1784.95,694.628 1783.36,681.908 1780.19,669.332C1777.03,656.756 1772.18,645.524 1765.65,635.636C1759.12,625.748 1751.01,617.78 1741.32,611.732C1731.62,605.684 1720.34,602.66 1707.48,602.66C1705.36,602.66 1702.77,602.9 1699.7,603.38C1696.63,603.86 1693.65,604.772 1690.77,606.116C1687.89,607.46 1685.3,609.188 1683,611.3C1680.69,613.412 1679.15,616.1 1678.39,619.364C1677.81,621.86 1677.28,625.316 1676.8,629.732C1676.32,634.148 1675.84,639.284 1675.36,645.14C1674.88,650.996 1674.55,657.332 1674.36,664.148C1674.16,670.964 1674.07,678.02 1674.07,685.316C1674.07,701.828 1674.12,715.652 1674.21,726.788C1674.31,737.924 1674.45,746.948 1674.64,753.86C1674.84,760.772 1675.08,765.908 1675.36,769.268C1675.65,772.628 1675.89,774.884 1676.08,776.036C1676.66,779.3 1678.05,782.516 1680.26,785.684C1682.47,788.852 1685.35,791.78 1688.9,794.468C1692.45,797.156 1696.58,799.316 1701.28,800.948C1705.99,802.58 1711.22,803.396 1716.98,803.396Z" style="fill:white;fill-rule:nonzero;stroke:rgb(102,102,102);stroke-width:1px;"/>
            <path d="M1952.85,786.116C1950.74,787.844 1947.86,790.148 1944.21,793.028C1940.56,795.908 1936.34,798.788 1931.54,801.668C1926.74,804.548 1921.46,806.996 1915.7,809.012C1909.94,811.028 1903.89,812.036 1897.56,812.036C1887.95,812.036 1879.41,810.356 1871.92,806.996C1864.43,803.636 1858.15,799.124 1853.06,793.46C1847.97,787.796 1844.13,781.124 1841.54,773.444C1838.95,765.764 1837.65,757.604 1837.65,748.964C1837.65,738.788 1839.19,729.764 1842.26,721.892C1845.33,714.02 1849.12,707.156 1853.63,701.3C1858.15,695.444 1863,690.548 1868.18,686.612C1873.36,682.676 1878.07,679.556 1882.29,677.252C1884.21,676.1 1886.66,674.852 1889.63,673.508C1892.61,672.164 1895.88,670.916 1899.43,669.764C1902.98,668.612 1906.82,667.604 1910.95,666.74C1915.08,665.876 1919.35,665.444 1923.76,665.444C1932.02,665.444 1940.04,666.5 1947.81,668.612C1955.59,670.724 1962.45,674.036 1968.4,678.548C1974.36,683.06 1979.15,688.868 1982.8,695.972C1986.45,703.076 1988.28,711.62 1988.28,721.604C1988.28,729.668 1986.79,737.252 1983.81,744.356C1980.84,751.46 1977.33,757.796 1973.3,763.364C1969.27,768.932 1965.28,773.684 1961.35,777.62C1957.41,781.556 1954.58,784.388 1952.85,786.116ZM1920.31,790.724C1931.25,790.724 1939.65,786.596 1945.51,778.34C1951.36,770.084 1954.29,757.412 1954.29,740.324C1954.29,731.684 1953.09,723.668 1950.69,716.276C1948.29,708.884 1944.93,702.404 1940.61,696.836C1936.29,691.268 1931.25,686.9 1925.49,683.732C1919.73,680.564 1913.49,678.98 1906.77,678.98C1901.97,678.98 1897.41,680.228 1893.09,682.724C1888.77,685.22 1884.98,688.82 1881.72,693.524C1878.45,698.228 1875.86,703.94 1873.94,710.66C1872.02,717.38 1871.06,724.964 1871.06,733.412C1871.06,742.436 1872.45,750.5 1875.24,757.604C1878.02,764.708 1881.72,770.708 1886.32,775.604C1890.93,780.5 1896.16,784.244 1902.02,786.836C1907.88,789.428 1913.97,790.724 1920.31,790.724Z" style="fill:white;fill-rule:nonzero;stroke:rgb(102,102,102);stroke-width:1px;"/>
            <path d="M2273.11,784.1C2273.68,784.1 2274.07,784.436 2274.26,785.108C2274.45,785.78 2274.55,786.596 2274.55,787.556C2274.55,788.516 2274.36,789.14 2273.97,789.428C2273.59,789.716 2273.2,790.052 2272.82,790.436C2271.47,791.204 2268.26,792.836 2263.17,795.332C2258.08,797.828 2252.42,800.372 2246.18,802.964C2239.94,805.556 2233.8,807.86 2227.75,809.876C2221.7,811.892 2217.14,812.9 2214.07,812.9C2211.38,812.9 2208.84,812.324 2206.43,811.172C2204.03,810.02 2203.03,808.196 2203.41,805.7C2203.8,804.164 2204.23,801.86 2204.71,798.788C2205.19,795.716 2205.62,791.972 2206,787.556C2206.39,781.988 2206.82,775.556 2207.3,768.26C2207.78,760.964 2208.02,752.9 2208.02,744.068C2208.02,733.7 2207.35,725.108 2206,718.292C2204.66,711.476 2202.74,706.052 2200.24,702.02C2197.75,697.988 2194.68,695.156 2191.03,693.524C2187.38,691.892 2183.16,691.076 2178.36,691.076C2173.94,691.076 2170.2,691.796 2167.12,693.236C2164.05,694.676 2161.36,696.26 2159.06,697.988C2154.84,701.252 2151.52,705.428 2149.12,710.516C2146.72,715.604 2145.24,722.276 2144.66,730.532C2144.47,732.644 2144.32,734.756 2144.23,736.868C2144.13,738.98 2144.03,741.284 2143.94,743.78C2143.84,746.276 2143.75,749.06 2143.65,752.132C2143.55,755.204 2143.51,758.852 2143.51,763.076C2143.51,774.404 2144.42,782.276 2146.24,786.692C2148.07,791.108 2151.19,793.316 2155.6,793.316C2157.14,793.316 2158.1,793.268 2158.48,793.172C2158.87,793.076 2159.64,792.932 2160.79,792.74C2161.17,793.124 2161.55,793.604 2161.94,794.18C2162.51,795.14 2162.42,796.196 2161.65,797.348C2160.69,798.5 2158.39,799.988 2154.74,801.812C2151.09,803.636 2147.06,805.316 2142.64,806.852C2138.23,808.388 2133.91,809.732 2129.68,810.884C2125.46,812.036 2122.29,812.612 2120.18,812.612C2117.49,812.612 2115.04,812.276 2112.84,811.604C2110.63,810.932 2109.52,810.116 2109.52,809.156C2109.52,808.004 2109.91,806.66 2110.68,805.124C2111.25,804.164 2111.83,801.86 2112.4,798.212C2112.98,794.564 2113.51,789.86 2113.99,784.1C2114.47,778.34 2114.9,771.668 2115.28,764.084C2115.67,756.5 2115.86,748.292 2115.86,739.46C2115.86,734.852 2115.62,729.764 2115.14,724.196C2114.66,718.628 2113.46,713.396 2111.54,708.5C2109.62,703.604 2106.79,699.476 2103.04,696.116C2099.3,692.756 2094.16,691.076 2087.64,691.076C2083.8,691.076 2080.34,691.604 2077.27,692.66C2074.2,693.716 2071.6,695.012 2069.49,696.548C2065.27,699.812 2061.67,703.844 2058.69,708.644C2055.72,713.444 2053.75,720.26 2052.79,729.092C2052.4,733.124 2052.02,737.3 2051.64,741.62C2051.25,745.94 2051.06,750.884 2051.06,756.452C2051.06,763.748 2051.25,769.796 2051.64,774.596C2052.02,779.396 2052.69,783.188 2053.65,785.972C2054.61,788.756 2055.76,790.676 2057.11,791.732C2058.45,792.788 2060.18,793.316 2062.29,793.316C2064.4,793.316 2065.84,793.124 2066.61,792.74C2067.57,792.356 2068.24,792.932 2068.63,794.468C2069.01,796.004 2068.91,796.964 2068.34,797.348C2067.57,798.116 2065.55,799.316 2062.29,800.948C2059.03,802.58 2055.28,804.26 2051.06,805.988C2046.84,807.716 2042.52,809.252 2038.1,810.596C2033.68,811.94 2029.94,812.612 2026.87,812.612C2023.6,812.612 2021.06,812.228 2019.24,811.46C2017.41,810.692 2016.5,809.828 2016.5,808.868C2016.5,808.676 2016.69,808.052 2017.08,806.996C2017.46,805.94 2017.75,805.028 2017.94,804.26C2018.71,798.308 2019.43,792.788 2020.1,787.7C2020.77,782.612 2021.25,777.092 2021.54,771.14C2021.83,765.188 2022.07,758.372 2022.26,750.692C2022.45,743.012 2022.55,733.7 2022.55,722.756C2022.55,712.196 2020.87,704.42 2017.51,699.428C2014.15,694.436 2010.64,691.94 2007,691.94C2005.46,691.94 2004.16,692.084 2003.11,692.372C2002.05,692.66 2001.04,692.9 2000.08,693.092C1998.93,693.284 1998.36,692.708 1998.36,691.364L1998.36,689.348C1998.55,689.156 2000.47,687.812 2004.12,685.316C2007.76,682.82 2012.08,680.132 2017.08,677.252C2022.07,674.372 2027.25,671.732 2032.63,669.332C2038,666.932 2042.42,665.732 2045.88,665.732C2048.18,665.732 2050.15,666.404 2051.78,667.748C2053.41,669.092 2054.23,671.588 2054.23,675.236C2054.23,676.964 2054.18,678.884 2054.08,680.996C2053.99,683.108 2053.89,685.316 2053.8,687.62C2053.7,689.924 2053.55,692.18 2053.36,694.388C2053.17,696.596 2053.07,698.468 2053.07,700.004C2055.76,697.508 2059.17,694.244 2063.3,690.212C2067.43,686.18 2072.08,682.34 2077.27,678.692C2082.45,675.044 2088.07,671.876 2094.12,669.188C2100.16,666.5 2106.55,665.156 2113.27,665.156C2122.1,665.156 2129.3,667.748 2134.87,672.932C2140.43,678.116 2143.41,687.14 2143.8,700.004C2146.87,697.124 2150.61,693.668 2155.03,689.636C2159.44,685.604 2164.39,681.764 2169.86,678.116C2175.33,674.468 2181.14,671.396 2187.28,668.9C2193.43,666.404 2199.67,665.156 2206,665.156C2228.28,665.156 2239.41,676.964 2239.41,700.58C2239.41,704.42 2239.22,708.836 2238.84,713.828C2238.45,718.82 2237.97,724.052 2237.39,729.524C2236.82,734.996 2236.34,740.42 2235.95,745.796C2235.57,751.172 2235.38,756.068 2235.38,760.484C2235.38,780.452 2240.66,790.436 2251.22,790.436C2252.95,790.436 2254.87,790.196 2256.98,789.716C2259.09,789.236 2261.2,788.66 2263.32,787.988C2265.43,787.316 2267.35,786.644 2269.08,785.972C2270.8,785.3 2272.05,784.676 2272.82,784.1L2273.11,784.1Z" style="fill:white;fill-rule:nonzero;stroke:rgb(102,102,102);stroke-width:1px;"/>
            <path d="M2316.31,759.044C2316.31,763.076 2316.4,766.964 2316.6,770.708C2316.79,774.452 2317.46,777.668 2318.61,780.356C2319.76,783.044 2321.49,785.204 2323.8,786.836C2326.1,788.468 2329.36,789.284 2333.59,789.284C2335.7,789.284 2338.1,789.044 2340.79,788.564C2343.47,788.084 2346.02,787.46 2348.42,786.692C2350.82,785.924 2352.93,785.156 2354.76,784.388C2356.58,783.62 2357.68,783.044 2358.07,782.66C2358.64,782.084 2359.03,782.084 2359.22,782.66C2359.41,783.236 2359.46,783.956 2359.36,784.82C2359.27,785.684 2359.03,786.548 2358.64,787.412C2358.26,788.276 2357.78,788.9 2357.2,789.284C2355.28,790.244 2351.92,791.972 2347.12,794.468C2342.32,796.964 2336.66,799.556 2330.13,802.244C2323.99,804.932 2317.99,807.188 2312.13,809.012C2306.28,810.836 2301.43,811.748 2297.59,811.748C2293.17,811.748 2289.72,810.404 2287.22,807.716C2284.72,805.028 2283.47,801.668 2283.47,797.636C2283.47,796.292 2283.52,795.14 2283.62,794.18C2283.72,793.22 2283.86,791.972 2284.05,790.436C2284.24,788.516 2284.58,785.012 2285.06,779.924C2285.54,774.836 2286.02,769.124 2286.5,762.788C2286.98,756.452 2287.41,750.068 2287.8,743.636C2288.18,737.204 2288.37,731.684 2288.37,727.076L2288.37,716.996C2288.37,712.004 2288.08,707.588 2287.51,703.748C2286.93,699.908 2285.97,696.932 2284.63,694.82C2283.67,693.476 2282.47,692.372 2281.03,691.508C2279.59,690.644 2277.81,690.212 2275.7,690.212C2274.55,690.212 2273.39,690.452 2272.24,690.932C2271.09,691.412 2270.23,691.652 2269.65,691.652C2269.27,691.652 2268.64,691.076 2267.78,689.924C2266.91,688.772 2266.96,687.908 2267.92,687.332C2269.27,686.372 2272.05,684.836 2276.28,682.724C2280.5,680.612 2285.11,678.308 2290.1,675.812C2295.47,673.124 2300.66,670.772 2305.65,668.756C2310.64,666.74 2314.2,665.732 2316.31,665.732C2318.42,665.732 2319.86,666.356 2320.63,667.604C2321.39,668.852 2321.78,670.244 2321.78,671.78L2321.78,672.932C2321.78,674.852 2321.49,677.924 2320.91,682.148C2320.34,686.372 2319.72,691.556 2319.04,697.7C2318.37,703.844 2317.75,710.948 2317.17,719.012C2316.6,727.076 2316.31,735.812 2316.31,745.22L2316.31,759.044ZM2304.79,609.284C2305.75,609.476 2307.33,610.532 2309.54,612.452C2311.75,614.372 2314,616.58 2316.31,619.076C2318.61,621.572 2320.63,623.972 2322.36,626.276C2324.08,628.58 2324.95,630.116 2324.95,630.884C2324.95,631.844 2323.8,633.284 2321.49,635.204C2319.19,637.124 2316.55,639.092 2313.57,641.108C2310.6,643.124 2307.72,644.9 2304.93,646.436C2302.15,647.972 2300.18,648.74 2299.03,648.74C2298.45,648.74 2297.06,647.828 2294.85,646.004C2292.64,644.18 2290.39,642.116 2288.08,639.812C2285.78,637.508 2283.72,635.252 2281.89,633.044C2280.07,630.836 2279.16,629.348 2279.16,628.58C2279.16,627.62 2280.4,626.132 2282.9,624.116C2285.39,622.1 2288.13,619.988 2291.11,617.78C2294.08,615.572 2296.96,613.652 2299.75,612.02C2302.53,610.388 2304.21,609.476 2304.79,609.284Z" style="fill:white;fill-rule:nonzero;stroke:rgb(102,102,102);stroke-width:1px;"/>
            <path d="M2396.66,733.124C2396.47,734.852 2396.28,736.388 2396.08,737.732C2395.89,739.076 2395.75,740.612 2395.65,742.34C2395.55,744.068 2395.46,746.228 2395.36,748.82C2395.27,751.412 2395.22,754.82 2395.22,759.044C2395.22,765.956 2395.46,771.62 2395.94,776.036C2396.42,780.452 2397.14,783.956 2398.1,786.548C2399.06,789.14 2400.26,790.916 2401.7,791.876C2403.14,792.836 2404.91,793.316 2407.03,793.316C2408.37,793.316 2409.81,793.124 2411.35,792.74C2411.73,792.74 2412.07,793.268 2412.36,794.324C2412.64,795.38 2412.6,796.1 2412.21,796.484C2411.06,797.444 2408.8,798.836 2405.44,800.66C2402.08,802.484 2398.29,804.26 2394.07,805.988C2389.84,807.716 2385.47,809.252 2380.96,810.596C2376.45,811.94 2372.66,812.612 2369.59,812.612C2366.9,812.612 2364.79,812.276 2363.25,811.604C2361.72,810.932 2360.95,810.116 2360.95,809.156C2360.95,808.196 2361.04,807.62 2361.24,807.428C2361.43,807.236 2361.72,806.756 2362.1,805.988C2362.48,805.028 2362.77,803.828 2362.96,802.388C2363.16,800.948 2363.44,799.268 2363.83,797.348C2364.21,794.66 2364.6,791.252 2364.98,787.124C2365.36,782.996 2365.75,778.484 2366.13,773.588C2366.51,768.692 2366.85,763.604 2367.14,758.324C2367.43,753.044 2367.57,747.908 2367.57,742.916C2367.57,740.804 2367.52,738.164 2367.43,734.996C2367.33,731.828 2367.19,727.748 2366.99,722.756C2366.8,717.188 2366.18,712.436 2365.12,708.5C2364.07,704.564 2362.72,701.396 2361.09,698.996C2359.46,696.596 2357.64,694.82 2355.62,693.668C2353.6,692.516 2351.64,691.94 2349.72,691.94C2348.76,691.94 2347.8,691.94 2346.84,691.94C2345.88,691.94 2344.91,692.036 2343.95,692.228C2343.19,692.228 2342.8,691.364 2342.8,689.636C2342.8,689.252 2342.95,688.916 2343.24,688.628C2343.52,688.34 2344.43,687.716 2345.97,686.756C2348.47,685.028 2351.83,682.916 2356.05,680.42C2360.28,677.924 2364.6,675.62 2369.01,673.508C2373.43,671.396 2377.6,669.572 2381.54,668.036C2385.47,666.5 2388.5,665.732 2390.61,665.732C2396.18,665.732 2398.96,668.9 2398.96,675.236C2398.96,676.196 2398.87,677.924 2398.68,680.42C2398.48,682.916 2398.34,685.46 2398.24,688.052C2398.15,690.644 2398,693.092 2397.81,695.396C2397.62,697.7 2397.52,699.236 2397.52,700.004C2401.55,696.164 2405.88,692.228 2410.48,688.196C2415.09,684.164 2420.08,680.468 2425.46,677.108C2430.84,673.748 2436.5,671.012 2442.45,668.9C2448.4,666.788 2454.55,665.732 2460.88,665.732C2472.4,665.732 2481.86,669.044 2489.25,675.668C2496.64,682.292 2500.34,692.804 2500.34,707.204C2500.34,711.044 2500.1,715.556 2499.62,720.74C2499.14,725.924 2498.61,731.3 2498.03,736.868C2497.46,742.436 2496.93,747.908 2496.45,753.284C2495.97,758.66 2495.73,763.46 2495.73,767.684C2495.73,783.044 2500.72,790.724 2510.71,790.724C2512.63,790.724 2514.79,790.388 2517.19,789.716C2519.59,789.044 2521.89,788.276 2524.1,787.412C2526.31,786.548 2528.28,785.684 2530,784.82C2531.73,783.956 2532.88,783.236 2533.46,782.66C2533.65,782.468 2533.89,782.612 2534.18,783.092C2534.47,783.572 2534.71,784.196 2534.9,784.964C2535.09,785.732 2535.14,786.404 2535.04,786.98C2534.95,787.556 2534.8,787.94 2534.61,788.132C2533.08,789.092 2529.76,790.916 2524.68,793.604C2519.59,796.292 2513.92,799.028 2507.68,801.812C2501.44,804.596 2495.25,807.092 2489.11,809.3C2482.96,811.508 2478.07,812.612 2474.42,812.612C2470,812.612 2466.98,811.556 2465.35,809.444C2463.72,807.332 2462.9,805.124 2462.9,802.82C2462.9,801.284 2463.14,799.364 2463.62,797.06C2464.1,794.756 2464.72,791.012 2465.49,785.828C2466.26,780.26 2466.98,773.732 2467.65,766.244C2468.32,758.756 2468.66,750.692 2468.66,742.052C2468.66,725.156 2465.54,712.34 2459.3,703.604C2453.06,694.868 2445.24,690.5 2435.83,690.5C2429.88,690.5 2424.6,691.652 2419.99,693.956C2415.38,696.26 2411.44,699.38 2408.18,703.316C2404.91,707.252 2402.32,711.764 2400.4,716.852C2398.48,721.94 2397.24,727.364 2396.66,733.124Z" style="fill:white;fill-rule:nonzero;stroke:rgb(102,102,102);stroke-width:1px;"/>
            <path d="M2574.93,759.044C2574.93,763.076 2575.03,766.964 2575.22,770.708C2575.41,774.452 2576.08,777.668 2577.24,780.356C2578.39,783.044 2580.12,785.204 2582.42,786.836C2584.72,788.468 2587.99,789.284 2592.21,789.284C2594.32,789.284 2596.72,789.044 2599.41,788.564C2602.1,788.084 2604.64,787.46 2607.04,786.692C2609.44,785.924 2611.55,785.156 2613.38,784.388C2615.2,783.62 2616.31,783.044 2616.69,782.66C2617.27,782.084 2617.65,782.084 2617.84,782.66C2618.03,783.236 2618.08,783.956 2617.99,784.82C2617.89,785.684 2617.65,786.548 2617.27,787.412C2616.88,788.276 2616.4,788.9 2615.83,789.284C2613.91,790.244 2610.55,791.972 2605.75,794.468C2600.95,796.964 2595.28,799.556 2588.76,802.244C2582.61,804.932 2576.61,807.188 2570.76,809.012C2564.9,810.836 2560.05,811.748 2556.21,811.748C2551.8,811.748 2548.34,810.404 2545.84,807.716C2543.35,805.028 2542.1,801.668 2542.1,797.636C2542.1,796.292 2542.15,795.14 2542.24,794.18C2542.34,793.22 2542.48,791.972 2542.68,790.436C2542.87,788.516 2543.2,785.012 2543.68,779.924C2544.16,774.836 2544.64,769.124 2545.12,762.788C2545.6,756.452 2546.03,750.068 2546.42,743.636C2546.8,737.204 2546.99,731.684 2546.99,727.076L2546.99,716.996C2546.99,712.004 2546.71,707.588 2546.13,703.748C2545.55,699.908 2544.6,696.932 2543.25,694.82C2542.29,693.476 2541.09,692.372 2539.65,691.508C2538.21,690.644 2536.43,690.212 2534.32,690.212C2533.17,690.212 2532.02,690.452 2530.87,690.932C2529.72,691.412 2528.85,691.652 2528.28,691.652C2527.89,691.652 2527.27,691.076 2526.4,689.924C2525.54,688.772 2525.59,687.908 2526.55,687.332C2527.89,686.372 2530.68,684.836 2534.9,682.724C2539.12,680.612 2543.73,678.308 2548.72,675.812C2554.1,673.124 2559.28,670.772 2564.28,668.756C2569.27,666.74 2572.82,665.732 2574.93,665.732C2577.04,665.732 2578.48,666.356 2579.25,667.604C2580.02,668.852 2580.4,670.244 2580.4,671.78L2580.4,672.932C2580.4,674.852 2580.12,677.924 2579.54,682.148C2578.96,686.372 2578.34,691.556 2577.67,697.7C2576.99,703.844 2576.37,710.948 2575.8,719.012C2575.22,727.076 2574.93,735.812 2574.93,745.22L2574.93,759.044ZM2563.41,609.284C2564.37,609.476 2565.95,610.532 2568.16,612.452C2570.37,614.372 2572.63,616.58 2574.93,619.076C2577.24,621.572 2579.25,623.972 2580.98,626.276C2582.71,628.58 2583.57,630.116 2583.57,630.884C2583.57,631.844 2582.42,633.284 2580.12,635.204C2577.81,637.124 2575.17,639.092 2572.2,641.108C2569.22,643.124 2566.34,644.9 2563.55,646.436C2560.77,647.972 2558.8,648.74 2557.65,648.74C2557.08,648.74 2555.68,647.828 2553.47,646.004C2551.27,644.18 2549.01,642.116 2546.71,639.812C2544.4,637.508 2542.34,635.252 2540.51,633.044C2538.69,630.836 2537.78,629.348 2537.78,628.58C2537.78,627.62 2539.03,626.132 2541.52,624.116C2544.02,622.1 2546.76,619.988 2549.73,617.78C2552.71,615.572 2555.59,613.652 2558.37,612.02C2561.16,610.388 2562.84,609.476 2563.41,609.284Z" style="fill:white;fill-rule:nonzero;stroke:rgb(102,102,102);stroke-width:1px;"/>
        </g>
    </g>
</svg>
