<?xml version="1.0" encoding="UTF-8" standalone="no"?><!DOCTYPE svg PUBLIC "-//W3C//DTD SVG 1.1//EN" "http://www.w3.org/Graphics/SVG/1.1/DTD/svg11.dtd"><svg width="100%" height="100%" viewBox="0 0 2176 364" version="1.1" xmlns="http://www.w3.org/2000/svg" xmlns:xlink="http://www.w3.org/1999/xlink" xml:space="preserve" style="fill-rule:evenodd;clip-rule:evenodd;stroke-linejoin:round;stroke-miterlimit:1.41421;"><g><path d="M102.083,70.317c-3.072,0 -7.536,-0.096 -13.392,-0.288c-5.856,-0.192 -12.048,-0.48 -18.576,-0.864c-6.528,-0.384 -12.912,-0.864 -19.152,-1.44c-6.24,-0.576 -11.28,-1.248 -15.12,-2.016c-0.768,-0.384 -1.488,-1.392 -2.16,-3.024c-0.672,-1.632 -1.008,-3.216 -1.008,-4.752c0,-1.728 0.768,-3.072 2.304,-4.032c7.68,2.112 16.032,3.792 25.056,5.04c9.024,1.248 17.664,2.256 25.92,3.024c8.256,0.768 15.696,1.248 22.32,1.44c6.624,0.192 11.472,0.288 14.544,0.288c7.488,0 15.168,-0.192 23.04,-0.576c7.872,-0.384 15.168,-0.864 21.888,-1.44c6.72,-0.576 12.336,-1.152 16.848,-1.728c4.512,-0.576 7.152,-1.152 7.92,-1.728c0.384,0 0.96,0.384 1.728,1.152c0.768,0.768 1.152,1.632 1.152,2.592c0,2.112 -0.96,3.696 -2.88,4.752c-1.92,1.056 -4.608,1.824 -8.064,2.304c-3.456,0.48 -7.68,0.816 -12.672,1.008c-4.992,0.192 -10.56,0.48 -16.704,0.864c-0.96,0.192 -1.44,1.248 -1.44,3.168c0,4.416 0.72,11.712 2.16,21.888c1.44,10.176 3.264,21.696 5.472,34.56c2.208,12.864 4.704,26.4 7.488,40.608c2.784,14.208 5.568,27.6 8.352,40.176c2.784,12.576 5.376,23.616 7.776,33.12c2.4,9.504 4.464,15.984 6.192,19.44c0.96,0.384 1.776,0.624 2.448,0.72c0.672,0.096 1.872,0.144 3.6,0.144c2.496,0 4.656,-0.096 6.48,-0.288c1.824,-0.192 3.216,-0.288 4.176,-0.288c0.768,0 1.344,0.768 1.728,2.304c0.384,1.536 0.576,2.592 0.576,3.168c0,1.344 -0.672,2.016 -2.016,2.016c-0.96,0 -2.304,-0.096 -4.032,-0.288c-1.728,-0.192 -4.128,-0.336 -7.2,-0.432c-3.072,-0.096 -7.056,-0.24 -11.952,-0.432c-4.896,-0.192 -11.088,-0.288 -18.576,-0.288c-2.496,0 -5.232,0.096 -8.208,0.288c-2.976,0.192 -5.808,0.384 -8.496,0.576c-2.688,0.192 -5.088,0.384 -7.2,0.576c-2.112,0.192 -3.552,0.288 -4.32,0.288c-0.576,0 -1.056,-0.384 -1.44,-1.152c-0.384,-0.768 -0.576,-1.632 -0.576,-2.592c0,-0.96 0.144,-1.776 0.432,-2.448c0.288,-0.672 0.816,-1.008 1.584,-1.008c1.728,-0.192 4.032,-0.336 6.912,-0.432c2.88,-0.096 4.32,-0.816 4.32,-2.16c0,-1.152 -0.48,-4.608 -1.44,-10.368c-0.96,-5.76 -2.16,-12.672 -3.6,-20.736c-1.44,-8.064 -2.976,-16.656 -4.608,-25.776c-1.632,-9.12 -3.216,-17.616 -4.752,-25.488c-3.456,-0.576 -7.824,-1.056 -13.104,-1.44c-5.28,-0.384 -10.8,-0.576 -16.56,-0.576c-6.72,0 -13.104,0.288 -19.152,0.864c-6.048,0.576 -10.8,1.632 -14.256,3.168c-0.96,4.224 -2.016,8.688 -3.168,13.392c-1.152,4.704 -2.256,9.456 -3.312,14.256c-1.056,4.8 -1.968,9.552 -2.736,14.256c-0.768,4.704 -1.152,9.072 -1.152,13.104c0,7.872 1.68,13.536 5.04,16.992c3.36,3.456 7.536,5.184 12.528,5.184c4.992,0 8.112,-0.144 9.36,-0.432c1.248,-0.288 2.352,-0.432 3.312,-0.432c1.536,0 2.304,0.384 2.304,1.152c0,0.384 -0.432,1.008 -1.296,1.872c-0.864,0.864 -1.968,1.776 -3.312,2.736c-1.728,1.344 -3.984,3.024 -6.768,5.04c-2.784,2.016 -6.384,3.024 -10.8,3.024c-0.576,0 -2.064,-0.096 -4.464,-0.288c-2.4,-0.192 -5.328,-0.432 -8.784,-0.72c-3.456,-0.288 -7.104,-0.528 -10.944,-0.72c-3.84,-0.192 -7.488,-0.288 -10.944,-0.288c-4.8,0 -8.688,0.096 -11.664,0.288c-2.976,0.192 -5.328,0.384 -7.056,0.576c-1.728,0.192 -2.928,0.384 -3.6,0.576c-0.672,0.192 -1.2,0.288 -1.584,0.288c-0.384,0 -0.72,-0.336 -1.008,-1.008c-0.288,-0.672 -0.432,-1.392 -0.432,-2.16c0,-1.152 0.48,-1.824 1.44,-2.016c1.92,-0.768 4.704,-2.208 8.352,-4.32c3.84,-2.304 7.248,-6.192 10.224,-11.664c2.976,-5.472 6.384,-12.912 10.224,-22.32c2.688,-6.336 5.664,-14.976 8.928,-25.92c3.264,-10.944 6.528,-22.944 9.792,-36c3.264,-13.056 6.336,-26.736 9.216,-41.04c2.88,-14.304 5.28,-28.08 7.2,-41.328l25.344,-13.536Zm29.376,89.568c-0.96,-4.8 -2.064,-10.752 -3.312,-17.856c-1.248,-7.104 -2.544,-14.352 -3.888,-21.744c-1.344,-7.392 -2.64,-14.352 -3.888,-20.88c-1.248,-6.528 -2.256,-11.52 -3.024,-14.976c-1.152,-5.184 -2.16,-8.448 -3.024,-9.792c-0.864,-1.344 -1.776,-2.016 -2.736,-2.016c-1.92,0 -3.936,1.584 -6.048,4.752c-2.112,3.168 -4.368,7.392 -6.768,12.672c-2.4,5.28 -4.752,11.328 -7.056,18.144c-2.304,6.816 -4.56,13.824 -6.768,21.024c-2.208,7.2 -4.224,14.352 -6.048,21.456c-1.824,7.104 -3.312,13.536 -4.464,19.296c3.072,-0.768 6.96,-1.584 11.664,-2.448c4.704,-0.864 9.696,-1.776 14.976,-2.736c5.28,-0.96 10.56,-1.872 15.84,-2.736c5.28,-0.864 10.128,-1.584 14.544,-2.16Z" style="fill-rule:nonzero;"/><path d="M261.635,192.141c-0.192,1.728 -0.384,3.264 -0.576,4.608c-0.192,1.344 -0.336,2.88 -0.432,4.608c-0.096,1.728 -0.192,3.888 -0.288,6.48c-0.096,2.592 -0.144,6 -0.144,10.224c0,6.912 0.24,12.576 0.72,16.992c0.48,4.416 1.2,7.92 2.16,10.512c0.96,2.592 2.16,4.368 3.6,5.328c1.44,0.96 3.216,1.44 5.328,1.44c1.344,0 2.784,-0.192 4.32,-0.576c0.384,0 0.72,0.528 1.008,1.584c0.288,1.056 0.24,1.776 -0.144,2.16c-1.152,0.96 -3.408,2.352 -6.768,4.176c-3.36,1.824 -7.152,3.6 -11.376,5.328c-4.224,1.728 -8.592,3.264 -13.104,4.608c-4.512,1.344 -8.304,2.016 -11.376,2.016c-2.688,0 -4.8,-0.336 -6.336,-1.008c-1.536,-0.672 -2.304,-1.488 -2.304,-2.448c0,-0.96 0.096,-1.536 0.288,-1.728c0.192,-0.192 0.48,-0.672 0.864,-1.44c0.384,-0.96 0.672,-2.16 0.864,-3.6c0.192,-1.44 0.48,-3.12 0.864,-5.04c0.384,-2.688 0.768,-6.096 1.152,-10.224c0.384,-4.128 0.768,-8.64 1.152,-13.536c0.384,-4.896 0.72,-9.984 1.008,-15.264c0.288,-5.28 0.432,-10.416 0.432,-15.408c0,-2.112 -0.048,-4.752 -0.144,-7.92c-0.096,-3.168 -0.24,-7.248 -0.432,-12.24c-0.192,-5.568 -0.816,-10.32 -1.872,-14.256c-1.056,-3.936 -2.4,-7.104 -4.032,-9.504c-1.632,-2.4 -3.456,-4.176 -5.472,-5.328c-2.016,-1.152 -3.984,-1.728 -5.904,-1.728c-0.96,0 -1.92,0 -2.88,0c-0.96,0 -1.92,0.096 -2.88,0.288c-0.768,0 -1.152,-0.864 -1.152,-2.592c0,-0.384 0.144,-0.72 0.432,-1.008c0.288,-0.288 1.2,-0.912 2.736,-1.872c2.496,-1.728 5.856,-3.84 10.08,-6.336c4.224,-2.496 8.544,-4.8 12.96,-6.912c4.416,-2.112 8.592,-3.936 12.528,-5.472c3.936,-1.536 6.96,-2.304 9.072,-2.304c5.568,0 8.352,3.168 8.352,9.504c0,0.96 -0.096,2.688 -0.288,5.184c-0.192,2.496 -0.336,5.04 -0.432,7.632c-0.096,2.592 -0.24,5.04 -0.432,7.344c-0.192,2.304 -0.288,3.84 -0.288,4.608c4.032,-3.84 8.352,-7.776 12.96,-11.808c4.608,-4.032 9.6,-7.728 14.976,-11.088c5.376,-3.36 11.04,-6.096 16.992,-8.208c5.952,-2.112 12.096,-3.168 18.432,-3.168c11.52,0 20.976,3.312 28.368,9.936c7.392,6.624 11.088,17.136 11.088,31.536c0,3.84 -0.24,8.352 -0.72,13.536c-0.48,5.184 -1.008,10.56 -1.584,16.128c-0.576,5.568 -1.104,11.04 -1.584,16.416c-0.48,5.376 -0.72,10.176 -0.72,14.4c0,15.36 4.992,23.04 14.976,23.04c1.92,0 4.08,-0.336 6.48,-1.008c2.4,-0.672 4.704,-1.44 6.912,-2.304c2.208,-0.864 4.176,-1.728 5.904,-2.592c1.728,-0.864 2.88,-1.584 3.456,-2.16c0.192,-0.192 0.432,-0.048 0.72,0.432c0.288,0.48 0.528,1.104 0.72,1.872c0.192,0.768 0.24,1.44 0.144,2.016c-0.096,0.576 -0.24,0.96 -0.432,1.152c-1.536,0.96 -4.848,2.784 -9.936,5.472c-5.088,2.688 -10.752,5.424 -16.992,8.208c-6.24,2.784 -12.432,5.28 -18.576,7.488c-6.144,2.208 -11.04,3.312 -14.688,3.312c-4.416,0 -7.44,-1.056 -9.072,-3.168c-1.632,-2.112 -2.448,-4.32 -2.448,-6.624c0,-1.536 0.24,-3.456 0.72,-5.76c0.48,-2.304 1.104,-6.048 1.872,-11.232c0.768,-5.568 1.488,-12.096 2.16,-19.584c0.672,-7.488 1.008,-15.552 1.008,-24.192c0,-16.896 -3.12,-29.712 -9.36,-38.448c-6.24,-8.736 -14.064,-13.104 -23.472,-13.104c-5.952,0 -11.232,1.152 -15.84,3.456c-4.608,2.304 -8.544,5.424 -11.808,9.36c-3.264,3.936 -5.856,8.448 -7.776,13.536c-1.92,5.088 -3.168,10.512 -3.744,16.272Z" style="fill-rule:nonzero;"/><path d="M585.635,142.029c-3.84,2.88 -10.224,5.424 -19.152,7.632c-8.928,2.208 -19.248,3.312 -30.96,3.312c-2.304,0 -4.848,0.048 -7.632,0.144c-2.784,0.096 -4.944,0.144 -6.48,0.144c0.768,7.296 -0.144,14.784 -2.736,22.464c-2.592,7.68 -5.568,14.928 -8.928,21.744c-3.36,6.816 -6.48,12.816 -9.36,18c-2.88,5.184 -4.32,8.928 -4.32,11.232c0,3.072 1.344,6.048 4.032,8.928c2.688,2.88 6.048,5.76 10.08,8.64c4.032,2.88 8.352,5.808 12.96,8.784c4.608,2.976 8.928,6.144 12.96,9.504c4.032,3.36 7.392,7.056 10.08,11.088c2.688,4.032 4.032,8.448 4.032,13.248c0,6.912 -2.64,14.496 -7.92,22.752c-5.28,8.256 -12.432,15.984 -21.456,23.184c-9.024,7.2 -19.584,13.2 -31.68,18c-12.096,4.8 -24.96,7.2 -38.592,7.2c-6.336,0 -13.2,-0.672 -20.592,-2.016c-7.392,-1.344 -14.208,-3.36 -20.448,-6.048c-6.24,-2.688 -11.424,-6 -15.552,-9.936c-4.128,-3.936 -6.192,-8.592 -6.192,-13.968c0,-3.072 2.352,-7.104 7.056,-12.096c4.704,-4.992 10.128,-10.08 16.272,-15.264c6.144,-5.184 12.192,-10.176 18.144,-14.976c5.952,-4.8 10.176,-8.64 12.672,-11.52c0.576,0 1.296,0.384 2.16,1.152c0.864,0.768 1.296,1.632 1.296,2.592c0,0.192 -0.048,0.336 -0.144,0.432c-0.096,0.096 -0.144,0.24 -0.144,0.432c-1.92,1.536 -4.272,3.456 -7.056,5.76c-2.784,2.304 -5.52,4.8 -8.208,7.488c-2.688,2.688 -4.992,5.616 -6.912,8.784c-1.92,3.168 -2.88,6.288 -2.88,9.36c0,4.032 1.584,8.016 4.752,11.952c3.168,3.936 7.296,7.44 12.384,10.512c5.088,3.072 10.896,5.568 17.424,7.488c6.528,1.92 13.152,2.88 19.872,2.88c13.824,0 24.336,-3.024 31.536,-9.072c7.2,-6.048 10.8,-14.544 10.8,-25.488c0,-4.608 -1.296,-9.024 -3.888,-13.248c-2.592,-4.224 -5.76,-8.16 -9.504,-11.808c-3.744,-3.648 -7.872,-7.056 -12.384,-10.224c-4.512,-3.168 -8.64,-6.096 -12.384,-8.784c-3.744,-2.688 -6.912,-5.184 -9.504,-7.488c-2.592,-2.304 -3.888,-4.416 -3.888,-6.336c0,-1.728 0.528,-3.696 1.584,-5.904c1.056,-2.208 2.256,-4.416 3.6,-6.624c1.344,-2.208 2.544,-4.224 3.6,-6.048c1.056,-1.824 1.584,-3.216 1.584,-4.176c0,0.192 -0.192,-0.096 -0.576,-0.864c-1.344,1.344 -3.264,2.688 -5.76,4.032c-2.496,1.344 -5.424,2.592 -8.784,3.744c-3.36,1.152 -6.912,2.112 -10.656,2.88c-3.744,0.768 -7.536,1.152 -11.376,1.152c-7.296,0 -13.728,-1.2 -19.296,-3.6c-5.568,-2.4 -10.224,-5.616 -13.968,-9.648c-3.744,-4.032 -6.576,-8.688 -8.496,-13.968c-1.92,-5.28 -2.88,-10.896 -2.88,-16.848c0,-8.832 1.296,-16.416 3.888,-22.752c2.592,-6.336 5.856,-11.712 9.792,-16.128c3.936,-4.416 8.112,-8.016 12.528,-10.8c4.416,-2.784 8.448,-5.136 12.096,-7.056c2.304,-1.152 5.04,-2.256 8.208,-3.312c3.168,-1.056 6.576,-2.016 10.224,-2.88c3.648,-0.864 7.392,-1.584 11.232,-2.16c3.84,-0.576 7.488,-0.864 10.944,-0.864c12.096,0 21.888,1.344 29.376,4.032c7.488,2.688 12.384,5.088 14.688,7.2c2.304,0.384 6.432,0.672 12.384,0.864c5.952,0.192 12.288,0.288 19.008,0.288l34.848,0c0.96,0 1.92,-0.096 2.88,-0.288c0.96,0.192 1.344,0.672 1.152,1.44c-0.192,0.768 -0.672,1.344 -1.44,1.728Zm-118.656,77.76c2.688,0 5.376,-0.576 8.064,-1.728c2.688,-1.152 5.136,-3.12 7.344,-5.904c2.208,-2.784 4.032,-6.528 5.472,-11.232c1.44,-4.704 2.16,-10.608 2.16,-17.712c0,-6.528 -0.72,-12.576 -2.16,-18.144c-1.44,-5.568 -3.6,-10.368 -6.48,-14.4c-2.88,-4.032 -6.432,-7.152 -10.656,-9.36c-4.224,-2.208 -9.216,-3.312 -14.976,-3.312c-8.256,0 -15.264,3.12 -21.024,9.36c-5.76,6.24 -8.64,15.12 -8.64,26.64c0,6.336 1.152,12.288 3.456,17.856c2.304,5.568 5.328,10.416 9.072,14.544c3.744,4.128 8.112,7.392 13.104,9.792c4.992,2.4 10.08,3.6 15.264,3.6Z" style="fill-rule:nonzero;"/><path d="M690.467,234.477c-2.112,2.304 -5.376,5.472 -9.792,9.504c-4.416,4.032 -9.744,8.064 -15.984,12.096c-6.24,4.032 -13.2,7.488 -20.88,10.368c-7.68,2.88 -15.84,4.32 -24.48,4.32c-7.872,0 -15.552,-1.2 -23.04,-3.6c-7.488,-2.4 -14.208,-6.048 -20.16,-10.944c-5.952,-4.896 -10.704,-11.136 -14.256,-18.72c-3.552,-7.584 -5.328,-16.656 -5.328,-27.216c0,-8.64 0.576,-16.08 1.728,-22.32c1.152,-6.24 2.688,-11.712 4.608,-16.416c1.92,-4.704 4.08,-8.736 6.48,-12.096c2.4,-3.36 4.848,-6.384 7.344,-9.072c3.072,-3.456 6.816,-6.72 11.232,-9.792c4.416,-3.072 9.168,-5.856 14.256,-8.352c5.088,-2.496 10.464,-4.464 16.128,-5.904c5.664,-1.44 11.376,-2.16 17.136,-2.16c10.368,0 18.48,1.728 24.336,5.184c5.856,3.456 8.784,8.256 8.784,14.4c0,3.84 -1.152,7.392 -3.456,10.656c1.92,-0.576 4.368,-1.536 7.344,-2.88c2.976,-1.344 6,-2.736 9.072,-4.176c3.072,-1.44 5.808,-2.736 8.208,-3.888c2.4,-1.152 3.984,-2.016 4.752,-2.592c0.384,-0.384 0.816,-0.528 1.296,-0.432c0.48,0.096 0.72,0.432 0.72,1.008c0,2.496 -0.48,4.56 -1.44,6.192c-0.96,1.632 -2.112,2.928 -3.456,3.888c-3.072,1.92 -7.488,4.32 -13.248,7.2c-5.76,2.88 -12.144,5.904 -19.152,9.072c-7.008,3.168 -14.256,6.336 -21.744,9.504c-7.488,3.168 -14.544,6.192 -21.168,9.072c-6.624,2.88 -12.384,5.424 -17.28,7.632c-4.896,2.208 -8.208,3.792 -9.936,4.752c0,6.528 1.296,12.624 3.888,18.288c2.592,5.664 6.192,10.608 10.8,14.832c4.608,4.224 10.128,7.536 16.56,9.936c6.432,2.4 13.488,3.6 21.168,3.6c6.912,0 13.152,-0.72 18.72,-2.16c5.568,-1.44 10.272,-3.072 14.112,-4.896c3.84,-1.824 6.864,-3.456 9.072,-4.896c2.208,-1.44 3.408,-2.16 3.6,-2.16c0.768,0 1.536,0.336 2.304,1.008c0.768,0.672 1.152,1.392 1.152,2.16Zm-101.376,-44.064c3.264,-1.152 6.96,-2.544 11.088,-4.176c4.128,-1.632 8.16,-3.408 12.096,-5.328c3.936,-1.92 7.536,-3.744 10.8,-5.472c3.264,-1.728 5.76,-3.264 7.488,-4.608c3.456,-2.496 5.184,-6.72 5.184,-12.672c0,-2.304 -0.432,-4.704 -1.296,-7.2c-0.864,-2.496 -2.16,-4.752 -3.888,-6.768c-1.728,-2.016 -3.84,-3.648 -6.336,-4.896c-2.496,-1.248 -5.28,-1.872 -8.352,-1.872c-2.688,0 -5.568,0.912 -8.64,2.736c-3.072,1.824 -5.952,4.8 -8.64,8.928c-2.688,4.128 -4.944,9.6 -6.768,16.416c-1.824,6.816 -2.736,15.12 -2.736,24.912Z" style="fill-rule:nonzero;"/><path d="M787.811,238.797c1.152,0.768 1.728,1.728 1.728,2.88c0,1.536 -2.208,3.552 -6.624,6.048c-4.608,2.688 -10.704,5.856 -18.288,9.504c-7.584,3.648 -15.12,6.816 -22.608,9.504c-3.648,1.344 -6.912,2.496 -9.792,3.456c-2.88,0.96 -5.472,1.44 -7.776,1.44c-2.688,0 -6,-0.624 -9.936,-1.872c-3.936,-1.248 -7.344,-2.736 -10.224,-4.464c-2.304,-1.536 -4.128,-2.736 -5.472,-3.6c-1.344,-0.864 -2.016,-1.776 -2.016,-2.736c0,-0.768 0.24,-1.488 0.72,-2.16c0.48,-0.672 0.912,-1.488 1.296,-2.448c0.192,-0.576 0.384,-1.344 0.576,-2.304c0.192,-0.96 0.288,-1.92 0.288,-2.88c0.576,-4.8 1.2,-11.76 1.872,-20.88c0.672,-9.12 1.2,-19.2 1.584,-30.24c0.384,-11.04 0.72,-22.464 1.008,-34.272c0.288,-11.808 0.432,-22.8 0.432,-32.976c0,-12.48 -0.048,-22.56 -0.144,-30.24c-0.096,-7.68 -0.336,-13.824 -0.72,-18.432c-0.576,-6.336 -1.344,-10.512 -2.304,-12.528c-0.96,-2.016 -2.016,-3.504 -3.168,-4.464c-1.344,-1.152 -2.64,-1.872 -3.888,-2.16c-1.248,-0.288 -2.4,-0.48 -3.456,-0.576c-1.056,-0.096 -1.92,-0.144 -2.592,-0.144c-0.672,0 -1.008,-0.192 -1.008,-0.576c0,-6.336 2.688,-9.504 8.064,-9.504c4.032,0 8.784,0.048 14.256,0.144c5.472,0.096 10.032,0.144 13.68,0.144c2.304,0 4.752,-0.144 7.344,-0.432c2.592,-0.288 5.136,-0.576 7.632,-0.864c2.496,-0.288 4.8,-0.624 6.912,-1.008c2.112,-0.384 3.648,-0.768 4.608,-1.152c0.768,-0.192 1.392,0.096 1.872,0.864c0.48,0.768 0.768,1.728 0.864,2.88c0.096,1.152 -0.096,2.208 -0.576,3.168c-0.48,0.96 -1.104,1.536 -1.872,1.728c-1.152,0.192 -2.16,0.288 -3.024,0.288c-0.864,0 -2.352,0.384 -4.464,1.152c-0.96,0.384 -1.824,1.584 -2.592,3.6c-0.768,2.016 -1.44,5.184 -2.016,9.504c-0.576,4.32 -1.152,9.984 -1.728,16.992c-0.576,7.008 -1.152,15.792 -1.728,26.352c-0.576,8.448 -1.008,17.04 -1.296,25.776c-0.288,8.736 -0.576,17.232 -0.864,25.488c-0.288,8.256 -0.48,15.936 -0.576,23.04c-0.096,7.104 -0.144,13.152 -0.144,18.144c0,5.568 0.048,11.184 0.144,16.848c0.096,5.664 0.624,10.128 1.584,13.392c0.96,3.072 3.456,5.952 7.488,8.64c4.032,2.688 8.256,4.032 12.672,4.032c3.456,0 7.008,-0.48 10.656,-1.44c3.648,-0.96 7.008,-2.112 10.08,-3.456c3.072,-1.344 5.808,-2.688 8.208,-4.032c2.4,-1.344 4.176,-2.4 5.328,-3.168Z" style="fill-rule:nonzero;"/><path d="M766.499,149.229c-1.536,-0.384 -2.256,-1.152 -2.16,-2.304c0.096,-1.152 0.816,-1.824 2.16,-2.016c0.576,-0.192 2.4,-0.864 5.472,-2.016c3.072,-1.152 6.768,-2.496 11.088,-4.032c4.32,-1.536 8.832,-3.168 13.536,-4.896c4.704,-1.728 8.88,-3.168 12.528,-4.32c2.304,-0.768 3.888,-1.296 4.752,-1.584c0.864,-0.288 1.584,-0.432 2.16,-0.432c0.576,0 1.248,0.24 2.016,0.72c0.768,0.48 0.96,1.2 0.576,2.16c-0.576,1.536 -1.2,5.184 -1.872,10.944c-0.672,5.76 -1.296,12.144 -1.872,19.152c-0.576,7.008 -1.104,13.968 -1.584,20.88c-0.48,6.912 -0.72,12.384 -0.72,16.416c0,15.36 3.264,27.216 9.792,35.568c6.528,8.352 16.704,12.528 30.528,12.528c7.104,0 13.008,-1.44 17.712,-4.32c4.704,-2.88 8.304,-6.24 10.8,-10.08c1.728,-2.496 2.88,-7.968 3.456,-16.416c0,-1.536 0.048,-3.552 0.144,-6.048c0.096,-2.496 0.192,-5.136 0.288,-7.92c0.096,-2.784 0.192,-5.472 0.288,-8.064c0.096,-2.592 0.144,-4.752 0.144,-6.48c0.192,-8.832 -0.048,-17.04 -0.72,-24.624c-0.672,-7.584 -1.68,-13.2 -3.024,-16.848c-0.576,-2.304 -1.728,-3.456 -3.456,-3.456c-1.152,0 -2.256,0.048 -3.312,0.144c-1.056,0.096 -1.68,-0.72 -1.872,-2.448c0,-0.576 0.576,-1.2 1.728,-1.872c1.152,-0.672 3.36,-1.68 6.624,-3.024c3.072,-1.152 6.48,-2.304 10.224,-3.456c3.744,-1.152 7.44,-2.112 11.088,-2.88c3.648,-0.768 6.912,-1.296 9.792,-1.584c2.88,-0.288 4.992,-0.144 6.336,0.432c0,0.192 0.144,0.432 0.432,0.72c0.288,0.288 0.528,0.912 0.72,1.872c0.384,1.152 0.144,4.752 -0.72,10.8c-0.864,6.048 -1.776,15.888 -2.736,29.52c-0.768,9.408 -1.44,18.528 -2.016,27.36c-0.576,8.832 -0.864,15.552 -0.864,20.16c0,9.024 1.68,16.176 5.04,21.456c3.36,5.28 7.536,7.92 12.528,7.92c3.264,0 6.384,-0.672 9.36,-2.016c2.976,-1.344 5.136,-2.496 6.48,-3.456c1.536,0 2.352,0.672 2.448,2.016c0.096,1.344 -0.24,2.208 -1.008,2.592c-2.88,1.92 -6.864,4.32 -11.952,7.2c-5.088,2.88 -10.368,5.616 -15.84,8.208c-5.472,2.592 -10.704,4.8 -15.696,6.624c-4.992,1.824 -9.024,2.736 -12.096,2.736c-1.536,0 -2.928,-1.008 -4.176,-3.024c-1.248,-2.016 -2.256,-4.464 -3.024,-7.344c-0.768,-2.88 -1.344,-5.856 -1.728,-8.928c-0.384,-3.072 -0.576,-5.76 -0.576,-8.064c-4.032,2.88 -8.64,5.904 -13.824,9.072c-5.184,3.168 -10.56,6.144 -16.128,8.928c-5.568,2.784 -11.088,5.04 -16.56,6.768c-5.472,1.728 -10.512,2.592 -15.12,2.592c-11.712,0 -21.312,-3.12 -28.8,-9.36c-7.488,-6.24 -11.232,-14.352 -11.232,-24.336c0,-2.112 0.192,-5.28 0.576,-9.504c0.384,-4.224 0.864,-9.024 1.44,-14.4c0.576,-5.376 1.056,-11.136 1.44,-17.28c0.384,-6.144 0.576,-12.096 0.576,-17.856c0,-8.832 -1.392,-15.6 -4.176,-20.304c-2.784,-4.704 -6.384,-7.344 -10.8,-7.92l-4.608,-0.576Z" style="fill-rule:nonzero;"/><path d="M949.091,260.973c-1.536,0.96 -2.976,2.544 -4.32,4.752c-1.344,2.208 -2.208,3.888 -2.592,5.04c-0.192,0.384 -0.72,0.72 -1.584,1.008c-0.864,0.288 -1.488,0.432 -1.872,0.432c-1.728,0 -2.592,-0.864 -2.592,-2.592c0,-0.576 0.768,-2.112 2.304,-4.608c1.152,-1.92 2.976,-4.944 5.472,-9.072c2.496,-4.128 5.04,-8.352 7.632,-12.672c2.592,-4.32 4.992,-8.256 7.2,-11.808c2.208,-3.552 3.792,-5.904 4.752,-7.056c0.96,-0.96 2.112,-1.104 3.456,-0.432c1.344,0.672 1.728,1.488 1.152,2.448c-0.384,0.384 -0.672,0.864 -0.864,1.44c-0.192,0.576 -0.288,1.536 -0.288,2.88c0,1.728 1.488,3.888 4.464,6.48c2.976,2.592 6.768,5.088 11.376,7.488c4.608,2.4 9.696,4.464 15.264,6.192c5.568,1.728 11.04,2.592 16.416,2.592c6.336,0 11.376,-1.824 15.12,-5.472c3.744,-3.648 5.616,-8.448 5.616,-14.4c0,-6.72 -2.112,-11.712 -6.336,-14.976c-4.224,-3.264 -9.456,-5.76 -15.696,-7.488c-6.24,-1.728 -13.056,-3.12 -20.448,-4.176c-7.392,-1.056 -14.208,-2.64 -20.448,-4.752c-6.24,-2.112 -11.472,-5.184 -15.696,-9.216c-4.224,-4.032 -6.336,-9.888 -6.336,-17.568c0,-5.952 2.064,-12 6.192,-18.144c4.128,-6.144 9.6,-11.616 16.416,-16.416c6.816,-4.8 14.64,-8.736 23.472,-11.808c8.832,-3.072 18.048,-4.608 27.648,-4.608c2.88,0 6.24,0.288 10.08,0.864c3.84,0.576 7.632,1.296 11.376,2.16c3.744,0.864 7.2,1.728 10.368,2.592c3.168,0.864 5.52,1.584 7.056,2.16c0.384,0 0.288,0.768 -0.288,2.304c-0.576,1.728 -2.016,4.368 -4.32,7.92c-2.304,3.552 -4.848,7.056 -7.632,10.512c-2.784,3.456 -5.376,6.528 -7.776,9.216c-2.4,2.688 -4.08,4.032 -5.04,4.032c-0.192,0 -0.768,0 -1.728,0c-0.96,0 -1.632,-0.192 -2.016,-0.576c0.192,-0.96 0.288,-2.208 0.288,-3.744c0,-6.72 -3.024,-12 -9.072,-15.84c-6.048,-3.84 -14.832,-5.76 -26.352,-5.76c-5.568,0 -10.128,1.632 -13.68,4.896c-3.552,3.264 -5.328,7.2 -5.328,11.808c0,7.488 2.112,13.056 6.336,16.704c4.224,3.648 9.504,6.384 15.84,8.208c6.336,1.824 13.152,3.216 20.448,4.176c7.296,0.96 14.112,2.448 20.448,4.464c6.336,2.016 11.616,5.04 15.84,9.072c4.224,4.032 6.336,10.08 6.336,18.144c0,3.648 -0.768,7.2 -2.304,10.656c-1.536,3.456 -3.552,6.72 -6.048,9.792c-2.496,3.072 -5.28,5.904 -8.352,8.496c-3.072,2.592 -6.144,4.848 -9.216,6.768c-2.88,1.92 -6.144,3.888 -9.792,5.904c-3.648,2.016 -7.584,3.888 -11.808,5.616c-4.224,1.728 -8.544,3.12 -12.96,4.176c-4.416,1.056 -8.832,1.584 -13.248,1.584c-2.112,0 -5.472,-0.432 -10.08,-1.296c-4.608,-0.864 -9.264,-1.872 -13.968,-3.024c-4.704,-1.152 -8.88,-2.256 -12.528,-3.312c-3.648,-1.056 -5.568,-1.776 -5.76,-2.16Z" style="fill-rule:nonzero;"/><path d="M1188.42,262.125c-4.416,2.496 -9.984,5.088 -16.704,7.776c-6.72,2.688 -13.728,4.032 -21.024,4.032c-4.416,0 -7.584,-0.384 -9.504,-1.152c-1.92,-0.768 -2.88,-2.304 -2.88,-4.608c0,-1.152 0.288,-2.544 0.864,-4.176c0.576,-1.632 1.344,-2.448 2.304,-2.448c0.384,0 0.864,0.288 1.44,0.864c1.152,1.536 2.88,2.4 5.184,2.592c2.304,0.192 4.8,0.288 7.488,0.288c4.032,-0.192 7.68,-1.584 10.944,-4.176c3.264,-2.592 5.664,-6.096 7.2,-10.512c0.768,-2.688 1.536,-6.912 2.304,-12.672c0.768,-5.76 1.392,-12.672 1.872,-20.736c0.48,-8.064 0.864,-17.04 1.152,-26.928c0.288,-9.888 0.432,-20.304 0.432,-31.248c0,-24.96 -0.672,-44.4 -2.016,-58.32c-1.344,-13.92 -3.072,-21.936 -5.184,-24.048c-2.112,-1.728 -4.752,-2.88 -7.92,-3.456c-3.168,-0.576 -6.384,-0.864 -9.648,-0.864c-1.536,0 -3.072,0.048 -4.608,0.144c-1.536,0.096 -2.784,0.144 -3.744,0.144c-1.152,0 -2.064,-0.432 -2.736,-1.296c-0.672,-0.864 -1.008,-1.776 -1.008,-2.736c0,-3.456 1.248,-5.184 3.744,-5.184c1.344,0 3.744,0.144 7.2,0.432c3.456,0.288 7.44,0.576 11.952,0.864c4.512,0.288 9.264,0.528 14.256,0.72c4.992,0.192 9.504,0.288 13.536,0.288c4.992,0 9.648,-0.768 13.968,-2.304c4.32,-1.536 8.784,-3.264 13.392,-5.184c4.608,-1.92 9.648,-3.648 15.12,-5.184c5.472,-1.536 11.856,-2.304 19.152,-2.304c18.816,0 34.992,2.688 48.528,8.064c13.536,5.376 24.624,12.624 33.264,21.744c8.64,9.12 15.024,19.584 19.152,31.392c4.128,11.808 6.192,24.048 6.192,36.72c0,14.976 -2.64,29.952 -7.92,44.928c-5.28,14.976 -12.816,28.464 -22.608,40.464c-9.792,12 -21.648,21.696 -35.568,29.088c-13.92,7.392 -29.424,11.088 -46.512,11.088c-3.648,0 -8.208,-0.336 -13.68,-1.008c-5.472,-0.672 -11.088,-1.584 -16.848,-2.736c-5.76,-1.152 -11.376,-2.448 -16.848,-3.888c-5.472,-1.44 -10.032,-2.928 -13.68,-4.464Zm67.68,0.288c11.328,0 21.216,-2.736 29.664,-8.208c8.448,-5.472 15.504,-12.672 21.168,-21.6c5.664,-8.928 9.936,-19.152 12.816,-30.672c2.88,-11.52 4.32,-23.328 4.32,-35.424c0,-12.864 -1.584,-25.584 -4.752,-38.16c-3.168,-12.576 -8.016,-23.808 -14.544,-33.696c-6.528,-9.888 -14.64,-17.856 -24.336,-23.904c-9.696,-6.048 -20.976,-9.072 -33.84,-9.072c-2.112,0 -4.704,0.24 -7.776,0.72c-3.072,0.48 -6.048,1.392 -8.928,2.736c-2.88,1.344 -5.472,3.072 -7.776,5.184c-2.304,2.112 -3.84,4.8 -4.608,8.064c-0.576,2.496 -1.104,5.952 -1.584,10.368c-0.48,4.416 -0.96,9.552 -1.44,15.408c-0.48,5.856 -0.816,12.192 -1.008,19.008c-0.192,6.816 -0.288,13.872 -0.288,21.168c0,16.512 0.048,30.336 0.144,41.472c0.096,11.136 0.24,20.16 0.432,27.072c0.192,6.912 0.432,12.048 0.72,15.408c0.288,3.36 0.528,5.616 0.72,6.768c0.576,3.264 1.968,6.48 4.176,9.648c2.208,3.168 5.088,6.096 8.64,8.784c3.552,2.688 7.68,4.848 12.384,6.48c4.704,1.632 9.936,2.448 15.696,2.448Z" style="fill-rule:nonzero;"/><path d="M1491.97,245.133c-2.112,1.728 -4.992,4.032 -8.64,6.912c-3.648,2.88 -7.872,5.76 -12.672,8.64c-4.8,2.88 -10.08,5.328 -15.84,7.344c-5.76,2.016 -11.808,3.024 -18.144,3.024c-9.6,0 -18.144,-1.68 -25.632,-5.04c-7.488,-3.36 -13.776,-7.872 -18.864,-13.536c-5.088,-5.664 -8.928,-12.336 -11.52,-20.016c-2.592,-7.68 -3.888,-15.84 -3.888,-24.48c0,-10.176 1.536,-19.2 4.608,-27.072c3.072,-7.872 6.864,-14.736 11.376,-20.592c4.512,-5.856 9.36,-10.752 14.544,-14.688c5.184,-3.936 9.888,-7.056 14.112,-9.36c1.92,-1.152 4.368,-2.4 7.344,-3.744c2.976,-1.344 6.24,-2.592 9.792,-3.744c3.552,-1.152 7.392,-2.16 11.52,-3.024c4.128,-0.864 8.4,-1.296 12.816,-1.296c8.256,0 16.272,1.056 24.048,3.168c7.776,2.112 14.64,5.424 20.592,9.936c5.952,4.512 10.752,10.32 14.4,17.424c3.648,7.104 5.472,15.648 5.472,25.632c0,8.064 -1.488,15.648 -4.464,22.752c-2.976,7.104 -6.48,13.44 -10.512,19.008c-4.032,5.568 -8.016,10.32 -11.952,14.256c-3.936,3.936 -6.768,6.768 -8.496,8.496Zm-32.544,4.608c10.944,0 19.344,-4.128 25.2,-12.384c5.856,-8.256 8.784,-20.928 8.784,-38.016c0,-8.64 -1.2,-16.656 -3.6,-24.048c-2.4,-7.392 -5.76,-13.872 -10.08,-19.44c-4.32,-5.568 -9.36,-9.936 -15.12,-13.104c-5.76,-3.168 -12,-4.752 -18.72,-4.752c-4.8,0 -9.36,1.248 -13.68,3.744c-4.32,2.496 -8.112,6.096 -11.376,10.8c-3.264,4.704 -5.856,10.416 -7.776,17.136c-1.92,6.72 -2.88,14.304 -2.88,22.752c0,9.024 1.392,17.088 4.176,24.192c2.784,7.104 6.48,13.104 11.088,18c4.608,4.896 9.84,8.64 15.696,11.232c5.856,2.592 11.952,3.888 18.288,3.888Z" style="fill-rule:nonzero;"/><path d="M1812.23,243.117c0.576,0 0.96,0.336 1.152,1.008c0.192,0.672 0.288,1.488 0.288,2.448c0,0.96 -0.192,1.584 -0.576,1.872c-0.384,0.288 -0.768,0.624 -1.152,1.008c-1.344,0.768 -4.56,2.4 -9.648,4.896c-5.088,2.496 -10.752,5.04 -16.992,7.632c-6.24,2.592 -12.384,4.896 -18.432,6.912c-6.048,2.016 -10.608,3.024 -13.68,3.024c-2.688,0 -5.232,-0.576 -7.632,-1.728c-2.4,-1.152 -3.408,-2.976 -3.024,-5.472c0.384,-1.536 0.816,-3.84 1.296,-6.912c0.48,-3.072 0.912,-6.816 1.296,-11.232c0.384,-5.568 0.816,-12 1.296,-19.296c0.48,-7.296 0.72,-15.36 0.72,-24.192c0,-10.368 -0.672,-18.96 -2.016,-25.776c-1.344,-6.816 -3.264,-12.24 -5.76,-16.272c-2.496,-4.032 -5.568,-6.864 -9.216,-8.496c-3.648,-1.632 -7.872,-2.448 -12.672,-2.448c-4.416,0 -8.16,0.72 -11.232,2.16c-3.072,1.44 -5.76,3.024 -8.064,4.752c-4.224,3.264 -7.536,7.44 -9.936,12.528c-2.4,5.088 -3.888,11.76 -4.464,20.016c-0.192,2.112 -0.336,4.224 -0.432,6.336c-0.096,2.112 -0.192,4.416 -0.288,6.912c-0.096,2.496 -0.192,5.28 -0.288,8.352c-0.096,3.072 -0.144,6.72 -0.144,10.944c0,11.328 0.912,19.2 2.736,23.616c1.824,4.416 4.944,6.624 9.36,6.624c1.536,0 2.496,-0.048 2.88,-0.144c0.384,-0.096 1.152,-0.24 2.304,-0.432c0.384,0.384 0.768,0.864 1.152,1.44c0.576,0.96 0.48,2.016 -0.288,3.168c-0.96,1.152 -3.264,2.64 -6.912,4.464c-3.648,1.824 -7.68,3.504 -12.096,5.04c-4.416,1.536 -8.736,2.88 -12.96,4.032c-4.224,1.152 -7.392,1.728 -9.504,1.728c-2.688,0 -5.136,-0.336 -7.344,-1.008c-2.208,-0.672 -3.312,-1.488 -3.312,-2.448c0,-1.152 0.384,-2.496 1.152,-4.032c0.576,-0.96 1.152,-3.264 1.728,-6.912c0.576,-3.648 1.104,-8.352 1.584,-14.112c0.48,-5.76 0.912,-12.432 1.296,-20.016c0.384,-7.584 0.576,-15.792 0.576,-24.624c0,-4.608 -0.24,-9.696 -0.72,-15.264c-0.48,-5.568 -1.68,-10.8 -3.6,-15.696c-1.92,-4.896 -4.752,-9.024 -8.496,-12.384c-3.744,-3.36 -8.88,-5.04 -15.408,-5.04c-3.84,0 -7.296,0.528 -10.368,1.584c-3.072,1.056 -5.664,2.352 -7.776,3.888c-4.224,3.264 -7.824,7.296 -10.8,12.096c-2.976,4.8 -4.944,11.616 -5.904,20.448c-0.384,4.032 -0.768,8.208 -1.152,12.528c-0.384,4.32 -0.576,9.264 -0.576,14.832c0,7.296 0.192,13.344 0.576,18.144c0.384,4.8 1.056,8.592 2.016,11.376c0.96,2.784 2.112,4.704 3.456,5.76c1.344,1.056 3.072,1.584 5.184,1.584c2.112,0 3.552,-0.192 4.32,-0.576c0.96,-0.384 1.632,0.192 2.016,1.728c0.384,1.536 0.288,2.496 -0.288,2.88c-0.768,0.768 -2.784,1.968 -6.048,3.6c-3.264,1.632 -7.008,3.312 -11.232,5.04c-4.224,1.728 -8.544,3.264 -12.96,4.608c-4.416,1.344 -8.16,2.016 -11.232,2.016c-3.264,0 -5.808,-0.384 -7.632,-1.152c-1.824,-0.768 -2.736,-1.632 -2.736,-2.592c0,-0.192 0.192,-0.816 0.576,-1.872c0.384,-1.056 0.672,-1.968 0.864,-2.736c0.768,-5.952 1.488,-11.472 2.16,-16.56c0.672,-5.088 1.152,-10.608 1.44,-16.56c0.288,-5.952 0.528,-12.768 0.72,-20.448c0.192,-7.68 0.288,-16.992 0.288,-27.936c0,-10.56 -1.68,-18.336 -5.04,-23.328c-3.36,-4.992 -6.864,-7.488 -10.512,-7.488c-1.536,0 -2.832,0.144 -3.888,0.432c-1.056,0.288 -2.064,0.528 -3.024,0.72c-1.152,0.192 -1.728,-0.384 -1.728,-1.728l0,-2.016c0.192,-0.192 2.112,-1.536 5.76,-4.032c3.648,-2.496 7.968,-5.184 12.96,-8.064c4.992,-2.88 10.176,-5.52 15.552,-7.92c5.376,-2.4 9.792,-3.6 13.248,-3.6c2.304,0 4.272,0.672 5.904,2.016c1.632,1.344 2.448,3.84 2.448,7.488c0,1.728 -0.048,3.648 -0.144,5.76c-0.096,2.112 -0.192,4.32 -0.288,6.624c-0.096,2.304 -0.24,4.56 -0.432,6.768c-0.192,2.208 -0.288,4.08 -0.288,5.616c2.688,-2.496 6.096,-5.76 10.224,-9.792c4.128,-4.032 8.784,-7.872 13.968,-11.52c5.184,-3.648 10.8,-6.816 16.848,-9.504c6.048,-2.688 12.432,-4.032 19.152,-4.032c8.832,0 16.032,2.592 21.6,7.776c5.568,5.184 8.544,14.208 8.928,27.072c3.072,-2.88 6.816,-6.336 11.232,-10.368c4.416,-4.032 9.36,-7.872 14.832,-11.52c5.472,-3.648 11.28,-6.72 17.424,-9.216c6.144,-2.496 12.384,-3.744 18.72,-3.744c22.272,0 33.408,11.808 33.408,35.424c0,3.84 -0.192,8.256 -0.576,13.248c-0.384,4.992 -0.864,10.224 -1.44,15.696c-0.576,5.472 -1.056,10.896 -1.44,16.272c-0.384,5.376 -0.576,10.272 -0.576,14.688c0,19.968 5.28,29.952 15.84,29.952c1.728,0 3.648,-0.24 5.76,-0.72c2.112,-0.48 4.224,-1.056 6.336,-1.728c2.112,-0.672 4.032,-1.344 5.76,-2.016c1.728,-0.672 2.976,-1.296 3.744,-1.872l0.288,0Z" style="fill-rule:nonzero;"/><path d="M1855.43,218.061c0,4.032 0.096,7.92 0.288,11.664c0.192,3.744 0.864,6.96 2.016,9.648c1.152,2.688 2.88,4.848 5.184,6.48c2.304,1.632 5.568,2.448 9.792,2.448c2.112,0 4.512,-0.24 7.2,-0.72c2.688,-0.48 5.232,-1.104 7.632,-1.872c2.4,-0.768 4.512,-1.536 6.336,-2.304c1.824,-0.768 2.928,-1.344 3.312,-1.728c0.576,-0.576 0.96,-0.576 1.152,0c0.192,0.576 0.24,1.296 0.144,2.16c-0.096,0.864 -0.336,1.728 -0.72,2.592c-0.384,0.864 -0.864,1.488 -1.44,1.872c-1.92,0.96 -5.28,2.688 -10.08,5.184c-4.8,2.496 -10.464,5.088 -16.992,7.776c-6.144,2.688 -12.144,4.944 -18,6.768c-5.856,1.824 -10.704,2.736 -14.544,2.736c-4.416,0 -7.872,-1.344 -10.368,-4.032c-2.496,-2.688 -3.744,-6.048 -3.744,-10.08c0,-1.344 0.048,-2.496 0.144,-3.456c0.096,-0.96 0.24,-2.208 0.432,-3.744c0.192,-1.92 0.528,-5.424 1.008,-10.512c0.48,-5.088 0.96,-10.8 1.44,-17.136c0.48,-6.336 0.912,-12.72 1.296,-19.152c0.384,-6.432 0.576,-11.952 0.576,-16.56l0,-10.08c0,-4.992 -0.288,-9.408 -0.864,-13.248c-0.576,-3.84 -1.536,-6.816 -2.88,-8.928c-0.96,-1.344 -2.16,-2.448 -3.6,-3.312c-1.44,-0.864 -3.216,-1.296 -5.328,-1.296c-1.152,0 -2.304,0.24 -3.456,0.72c-1.152,0.48 -2.016,0.72 -2.592,0.72c-0.384,0 -1.008,-0.576 -1.872,-1.728c-0.864,-1.152 -0.816,-2.016 0.144,-2.592c1.344,-0.96 4.128,-2.496 8.352,-4.608c4.224,-2.112 8.832,-4.416 13.824,-6.912c5.376,-2.688 10.56,-5.04 15.552,-7.056c4.992,-2.016 8.544,-3.024 10.656,-3.024c2.112,0 3.552,0.624 4.32,1.872c0.768,1.248 1.152,2.64 1.152,4.176l0,1.152c0,1.92 -0.288,4.992 -0.864,9.216c-0.576,4.224 -1.2,9.408 -1.872,15.552c-0.672,6.144 -1.296,13.248 -1.872,21.312c-0.576,8.064 -0.864,16.8 -0.864,26.208l0,13.824Zm-11.52,-149.76c0.96,0.192 2.544,1.248 4.752,3.168c2.208,1.92 4.464,4.128 6.768,6.624c2.304,2.496 4.32,4.896 6.048,7.2c1.728,2.304 2.592,3.84 2.592,4.608c0,0.96 -1.152,2.4 -3.456,4.32c-2.304,1.92 -4.944,3.888 -7.92,5.904c-2.976,2.016 -5.856,3.792 -8.64,5.328c-2.784,1.536 -4.752,2.304 -5.904,2.304c-0.576,0 -1.968,-0.912 -4.176,-2.736c-2.208,-1.824 -4.464,-3.888 -6.768,-6.192c-2.304,-2.304 -4.368,-4.56 -6.192,-6.768c-1.824,-2.208 -2.736,-3.696 -2.736,-4.464c0,-0.96 1.248,-2.448 3.744,-4.464c2.496,-2.016 5.232,-4.128 8.208,-6.336c2.976,-2.208 5.856,-4.128 8.64,-5.76c2.784,-1.632 4.464,-2.544 5.04,-2.736Z" style="fill-rule:nonzero;"/><path d="M1935.78,192.141c-0.192,1.728 -0.384,3.264 -0.576,4.608c-0.192,1.344 -0.336,2.88 -0.432,4.608c-0.096,1.728 -0.192,3.888 -0.288,6.48c-0.096,2.592 -0.144,6 -0.144,10.224c0,6.912 0.24,12.576 0.72,16.992c0.48,4.416 1.2,7.92 2.16,10.512c0.96,2.592 2.16,4.368 3.6,5.328c1.44,0.96 3.216,1.44 5.328,1.44c1.344,0 2.784,-0.192 4.32,-0.576c0.384,0 0.72,0.528 1.008,1.584c0.288,1.056 0.24,1.776 -0.144,2.16c-1.152,0.96 -3.408,2.352 -6.768,4.176c-3.36,1.824 -7.152,3.6 -11.376,5.328c-4.224,1.728 -8.592,3.264 -13.104,4.608c-4.512,1.344 -8.304,2.016 -11.376,2.016c-2.688,0 -4.8,-0.336 -6.336,-1.008c-1.536,-0.672 -2.304,-1.488 -2.304,-2.448c0,-0.96 0.096,-1.536 0.288,-1.728c0.192,-0.192 0.48,-0.672 0.864,-1.44c0.384,-0.96 0.672,-2.16 0.864,-3.6c0.192,-1.44 0.48,-3.12 0.864,-5.04c0.384,-2.688 0.768,-6.096 1.152,-10.224c0.384,-4.128 0.768,-8.64 1.152,-13.536c0.384,-4.896 0.72,-9.984 1.008,-15.264c0.288,-5.28 0.432,-10.416 0.432,-15.408c0,-2.112 -0.048,-4.752 -0.144,-7.92c-0.096,-3.168 -0.24,-7.248 -0.432,-12.24c-0.192,-5.568 -0.816,-10.32 -1.872,-14.256c-1.056,-3.936 -2.4,-7.104 -4.032,-9.504c-1.632,-2.4 -3.456,-4.176 -5.472,-5.328c-2.016,-1.152 -3.984,-1.728 -5.904,-1.728c-0.96,0 -1.92,0 -2.88,0c-0.96,0 -1.92,0.096 -2.88,0.288c-0.768,0 -1.152,-0.864 -1.152,-2.592c0,-0.384 0.144,-0.72 0.432,-1.008c0.288,-0.288 1.2,-0.912 2.736,-1.872c2.496,-1.728 5.856,-3.84 10.08,-6.336c4.224,-2.496 8.544,-4.8 12.96,-6.912c4.416,-2.112 8.592,-3.936 12.528,-5.472c3.936,-1.536 6.96,-2.304 9.072,-2.304c5.568,0 8.352,3.168 8.352,9.504c0,0.96 -0.096,2.688 -0.288,5.184c-0.192,2.496 -0.336,5.04 -0.432,7.632c-0.096,2.592 -0.24,5.04 -0.432,7.344c-0.192,2.304 -0.288,3.84 -0.288,4.608c4.032,-3.84 8.352,-7.776 12.96,-11.808c4.608,-4.032 9.6,-7.728 14.976,-11.088c5.376,-3.36 11.04,-6.096 16.992,-8.208c5.952,-2.112 12.096,-3.168 18.432,-3.168c11.52,0 20.976,3.312 28.368,9.936c7.392,6.624 11.088,17.136 11.088,31.536c0,3.84 -0.24,8.352 -0.72,13.536c-0.48,5.184 -1.008,10.56 -1.584,16.128c-0.576,5.568 -1.104,11.04 -1.584,16.416c-0.48,5.376 -0.72,10.176 -0.72,14.4c0,15.36 4.992,23.04 14.976,23.04c1.92,0 4.08,-0.336 6.48,-1.008c2.4,-0.672 4.704,-1.44 6.912,-2.304c2.208,-0.864 4.176,-1.728 5.904,-2.592c1.728,-0.864 2.88,-1.584 3.456,-2.16c0.192,-0.192 0.432,-0.048 0.72,0.432c0.288,0.48 0.528,1.104 0.72,1.872c0.192,0.768 0.24,1.44 0.144,2.016c-0.096,0.576 -0.24,0.96 -0.432,1.152c-1.536,0.96 -4.848,2.784 -9.936,5.472c-5.088,2.688 -10.752,5.424 -16.992,8.208c-6.24,2.784 -12.432,5.28 -18.576,7.488c-6.144,2.208 -11.04,3.312 -14.688,3.312c-4.416,0 -7.44,-1.056 -9.072,-3.168c-1.632,-2.112 -2.448,-4.32 -2.448,-6.624c0,-1.536 0.24,-3.456 0.72,-5.76c0.48,-2.304 1.104,-6.048 1.872,-11.232c0.768,-5.568 1.488,-12.096 2.16,-19.584c0.672,-7.488 1.008,-15.552 1.008,-24.192c0,-16.896 -3.12,-29.712 -9.36,-38.448c-6.24,-8.736 -14.064,-13.104 -23.472,-13.104c-5.952,0 -11.232,1.152 -15.84,3.456c-4.608,2.304 -8.544,5.424 -11.808,9.36c-3.264,3.936 -5.856,8.448 -7.776,13.536c-1.92,5.088 -3.168,10.512 -3.744,16.272Z" style="fill-rule:nonzero;"/><path d="M2114.05,218.061c0,4.032 0.096,7.92 0.288,11.664c0.192,3.744 0.864,6.96 2.016,9.648c1.152,2.688 2.88,4.848 5.184,6.48c2.304,1.632 5.568,2.448 9.792,2.448c2.112,0 4.512,-0.24 7.2,-0.72c2.688,-0.48 5.232,-1.104 7.632,-1.872c2.4,-0.768 4.512,-1.536 6.336,-2.304c1.824,-0.768 2.928,-1.344 3.312,-1.728c0.576,-0.576 0.96,-0.576 1.152,0c0.192,0.576 0.24,1.296 0.144,2.16c-0.096,0.864 -0.336,1.728 -0.72,2.592c-0.384,0.864 -0.864,1.488 -1.44,1.872c-1.92,0.96 -5.28,2.688 -10.08,5.184c-4.8,2.496 -10.464,5.088 -16.992,7.776c-6.144,2.688 -12.144,4.944 -18,6.768c-5.856,1.824 -10.704,2.736 -14.544,2.736c-4.416,0 -7.872,-1.344 -10.368,-4.032c-2.496,-2.688 -3.744,-6.048 -3.744,-10.08c0,-1.344 0.048,-2.496 0.144,-3.456c0.096,-0.96 0.24,-2.208 0.432,-3.744c0.192,-1.92 0.528,-5.424 1.008,-10.512c0.48,-5.088 0.96,-10.8 1.44,-17.136c0.48,-6.336 0.912,-12.72 1.296,-19.152c0.384,-6.432 0.576,-11.952 0.576,-16.56l0,-10.08c0,-4.992 -0.288,-9.408 -0.864,-13.248c-0.576,-3.84 -1.536,-6.816 -2.88,-8.928c-0.96,-1.344 -2.16,-2.448 -3.6,-3.312c-1.44,-0.864 -3.216,-1.296 -5.328,-1.296c-1.152,0 -2.304,0.24 -3.456,0.72c-1.152,0.48 -2.016,0.72 -2.592,0.72c-0.384,0 -1.008,-0.576 -1.872,-1.728c-0.864,-1.152 -0.816,-2.016 0.144,-2.592c1.344,-0.96 4.128,-2.496 8.352,-4.608c4.224,-2.112 8.832,-4.416 13.824,-6.912c5.376,-2.688 10.56,-5.04 15.552,-7.056c4.992,-2.016 8.544,-3.024 10.656,-3.024c2.112,0 3.552,0.624 4.32,1.872c0.768,1.248 1.152,2.64 1.152,4.176l0,1.152c0,1.92 -0.288,4.992 -0.864,9.216c-0.576,4.224 -1.2,9.408 -1.872,15.552c-0.672,6.144 -1.296,13.248 -1.872,21.312c-0.576,8.064 -0.864,16.8 -0.864,26.208l0,13.824Zm-11.52,-149.76c0.96,0.192 2.544,1.248 4.752,3.168c2.208,1.92 4.464,4.128 6.768,6.624c2.304,2.496 4.32,4.896 6.048,7.2c1.728,2.304 2.592,3.84 2.592,4.608c0,0.96 -1.152,2.4 -3.456,4.32c-2.304,1.92 -4.944,3.888 -7.92,5.904c-2.976,2.016 -5.856,3.792 -8.64,5.328c-2.784,1.536 -4.752,2.304 -5.904,2.304c-0.576,0 -1.968,-0.912 -4.176,-2.736c-2.208,-1.824 -4.464,-3.888 -6.768,-6.192c-2.304,-2.304 -4.368,-4.56 -6.192,-6.768c-1.824,-2.208 -2.736,-3.696 -2.736,-4.464c0,-0.96 1.248,-2.448 3.744,-4.464c2.496,-2.016 5.232,-4.128 8.208,-6.336c2.976,-2.208 5.856,-4.128 8.64,-5.76c2.784,-1.632 4.464,-2.544 5.04,-2.736Z" style="fill-rule:nonzero;"/></g></svg>